<?xml version="1.0" encoding="utf-8"?>
<!-- Generator: Adobe Illustrator 16.0.4, SVG Export Plug-In . SVG Version: 6.00 Build 0)  -->
<!DOCTYPE svg PUBLIC "-//W3C//DTD SVG 1.1//EN" "http://www.w3.org/Graphics/SVG/1.1/DTD/svg11.dtd">
<svg version="1.1" xmlns="http://www.w3.org/2000/svg" xmlns:xlink="http://www.w3.org/1999/xlink" x="0px" y="0px" width="800px"
	 height="600px" viewBox="0 0 800 600" style="enable-background:new 0 0 800 600;" xml:space="preserve">
<g id="Background" style="display:none;">
	<rect style="display:inline;fill:#76B2DD;" width="800" height="600"/>
</g>
<g id="Gear">
	<path id="Cog_1_" d="M653.3,324.6c-0.1-0.6-0.8-1.1-1.3-1.5c-0.6-0.5-1.2-1-1.7-1.4c-1.3-1-2.6-2-3.9-2.9c-2.6-1.8-5.2-3.5-7.9-5.2
		c-5.3-3.3-10.8-6.3-16.5-8.9c-2.8-1.3-5.7-2.4-8.7-3.2c-0.5-0.1-0.7,0-0.7-0.6c0-0.4,0-0.8,0-1.2c0-0.8,0-1.6,0-2.3
		c0-1.7-0.1-3.4-0.2-5.1c-0.2-3.3-0.4-6.5-0.7-9.8c-0.1-1.6-0.3-3.1-0.5-4.7c-0.1-0.8-0.2-1.6-0.3-2.4c-0.1-0.6,0.1-0.5,0.6-0.7
		c0.4-0.2,0.9-0.4,1.3-0.6c5.6-2.6,10.8-6.1,15.8-9.8c5-3.7,9.9-7.7,14.4-12c1.1-1,2.2-2.1,3.2-3.2c0.5-0.5,1-1.1,1.5-1.6
		c0.5-0.6,0.5-0.9,0.4-1.7c-0.5-3.1-1.5-6.2-2.3-9.3c-0.8-3.1-1.6-6.2-2.6-9.2c-0.2-0.5-0.3-1.2-0.7-1.6c-0.3-0.4-1.4-0.6-2-0.8
		c-1.6-0.5-3.2-0.9-4.7-1.3c-6.3-1.5-12.7-2.6-19.2-3.3c-6.4-0.7-13-1.2-19.5-0.5c-0.4,0-0.7,0.1-1.1,0.1c-0.1-0.4-0.3-0.7-0.4-1
		c-0.3-0.7-0.6-1.4-0.9-2.1c-0.7-1.5-1.3-3-2-4.5c-1.3-2.8-2.7-5.7-4.1-8.4c-0.7-1.3-1.4-2.6-2.1-4c-0.4-0.7-0.7-1.3-1.1-2
		c-0.2-0.3-0.4-0.6-0.5-1c-0.4-0.7-0.4-0.6,0.1-1.2c2.1-2.2,4-4.6,5.8-7c3.7-5.1,7-10.6,10-16.2c1.5-2.8,2.9-5.7,4.3-8.6
		c0.6-1.4,1.2-2.7,1.8-4.1c0.3-0.7,0.5-1.4,0.8-2.1c0.2-0.5,0.7-1.5,0.4-2c-1.4-2.7-3.5-5.1-5.3-7.5c-2-2.6-3.9-5.1-5.9-7.6
		c-0.4-0.5-0.8-1.1-1.3-1.5c-0.5-0.6-0.9-0.6-1.7-0.6c-1.6,0.1-3.2,0.3-4.8,0.5c-3.2,0.5-6.4,1.1-9.6,1.8
		c-6.3,1.4-12.5,3.1-18.5,5.2c-2.9,1-5.8,2.2-8.5,3.6c-0.7,0.3-1.3,0.7-2,1.1c-0.4,0.2-0.5,0.5-0.9,0.1c-0.3-0.3-0.5-0.5-0.8-0.8
		c-1.2-1.1-2.3-2.3-3.5-3.4c-4.6-4.3-9.3-8.3-14.3-12.2c-0.3-0.2-0.6-0.5-0.9-0.7c0.1-0.4,0.3-0.7,0.4-1.1c0.3-0.7,0.5-1.4,0.8-2.1
		c0.5-1.6,1-3.1,1.4-4.7c0.8-3.1,1.5-6.3,2-9.5c1.1-6.4,1.7-12.8,2.1-19.2c0.2-3.2,0.3-6.4-0.1-9.6c0-0.3-0.9-0.8-1.1-1
		c-0.6-0.4-1.2-0.8-1.9-1.2c-1.4-0.9-2.9-1.7-4.3-2.6c-2.8-1.6-5.6-3.2-8.4-4.8c-0.7-0.4-2.7-1.9-3.5-1.5c-1.5,0.6-2.9,1.4-4.3,2.3
		c-5.4,3.2-10.6,6.8-15.6,10.6c-4.9,3.8-9.7,7.8-13.9,12.4c-1,1.1-2,2.3-2.9,3.5c-1.5-0.6-3.1-1.2-4.6-1.8c-3-1.1-6-2.2-9-3.2
		c-3-1-6.1-1.9-9.1-2.8c-0.7-0.2-1.5-0.4-2.2-0.6c0-0.8,0-1.5,0-2.3c-0.1-1.6-0.2-3.3-0.4-4.9c-0.8-6.4-2.3-12.7-4.1-18.9
		c-1.7-6-3.6-12.2-6.4-17.9c-0.2-0.4-0.4-1.2-0.9-1.4c-0.6-0.2-1.2-0.3-1.8-0.5c-1.6-0.3-3.3-0.5-4.9-0.8c-3.2-0.5-6.5-0.8-9.7-1.2
		c-1.5-0.2-3-0.4-4.5-0.4c-1.4,0-2.5,2-3.3,3c-1.9,2.5-3.7,5.1-5.5,7.7c-3.5,5.2-6.6,10.7-9.5,16.3c-1.4,2.8-2.7,5.6-3.8,8.5
		c-0.5,1.4-1,2.8-1.4,4.2c-0.1,0.4-0.2,0.7-0.3,1.1c-0.4,0-0.8,0-1.2,0c-0.9,0-1.8,0-2.7,0c-6.5,0.1-13.1,0.6-19.6,1.4
		c-0.8,0.1-1.6,0.2-2.4,0.3c-0.6,0.1-0.5-0.1-0.7-0.6c-0.1-0.3-0.3-0.7-0.4-1c-0.7-1.4-1.4-2.8-2.2-4.2c-1.5-2.7-3.2-5.4-5-7.9
		c-3.5-5.2-7.5-10.1-11.6-14.8c-2.1-2.3-4.2-4.7-6.4-6.8c-0.5-0.5-1.1-1-1.6-1.5c-0.5-0.4-0.7-0.5-1.4-0.4c-1.6,0.2-3.2,0.6-4.7,1
		c-3.2,0.8-6.3,1.7-9.4,2.5c-1.4,0.4-2.9,0.8-4.3,1.2c-0.6,0.2-1.2,0.4-1.7,0.7c-0.6,0.4-0.8,1.4-1,2.1c-1.9,6.1-3.1,12.6-4,18.9
		c-0.9,6.4-1.6,12.9-1.4,19.4c0,1.6,0.1,3.1,0.3,4.7c0,0.4,0.1,0.8,0.1,1.1c0.1,0.6-0.2,0.5-0.7,0.7c-0.8,0.3-1.6,0.7-2.4,1
		c-2.9,1.3-5.7,2.6-8.6,4c-2.8,1.4-5.6,2.8-8.3,4.3c-0.7,0.4-1.3,0.7-2,1.1c-0.3,0.2-0.7,0.4-1,0.5c-0.4,0.2-0.5,0.5-0.9,0.1
		c-1.1-1.1-2.3-2.2-3.5-3.2c-4.8-4-10.1-7.4-15.5-10.5c-5.5-3.2-11.2-6.2-17.1-8.5c-0.7-0.3-1.4-0.5-2.1-0.8
		c-0.4-0.1-1.4-0.7-1.8-0.5c-1.3,0.5-2.5,1.6-3.6,2.4c-2.6,1.9-5.2,3.9-7.7,5.9c-1.2,0.9-2.4,1.9-3.6,2.8c-0.5,0.4-1.1,0.9-1.6,1.3
		c-0.7,0.6-0.9,1-0.8,1.9c0.2,3.2,0.7,6.3,1.3,9.4c1.2,6.4,2.7,12.7,4.7,18.8c0.9,3,2,5.9,3.1,8.8c0.6,1.4,1.2,2.7,1.8,4.1
		c0.3,0.7,0.7,1.3,1,2c0.2,0.3,0.4,0.7,0.6,1c-0.4,0.4-0.7,0.7-1.1,1.1c-4.4,4.5-8.6,9.2-12.5,14c-1,1.2-1.9,2.3-2.8,3.5
		c-0.2,0.3-0.5,0.6-0.7,0.9c-0.3,0.4-0.5,0.2-0.9,0c-0.8-0.3-1.7-0.6-2.5-0.9c-3-1-6.1-1.8-9.3-2.5c-6.3-1.3-12.7-2.2-19.2-2.7
		c-3.2-0.3-6.5-0.5-9.7-0.5c-1.5,0-3.1,0-4.6,0.2c-1.1,0.1-2,2.2-2.5,3.1c-1.7,2.8-3.3,5.6-4.9,8.4c-0.8,1.3-1.5,2.7-2.3,4
		c-0.4,0.7-0.7,1.3-1.1,2c-0.2,0.5-0.9,1.4-0.6,1.9c1.2,2.9,3,5.5,4.6,8.1c1.7,2.7,3.5,5.2,5.3,7.8c3.7,5,7.6,9.9,11.9,14.4
		c2.2,2.2,4.4,4.4,6.9,6.3c-1.2,2.9-2.3,5.9-3.4,8.9c-1.1,3-2.1,6-3,9c-0.5,1.5-0.9,2.9-1.3,4.4c-0.2,0.7-0.4,1.5-0.6,2.2
		c-0.2,0.5-0.3,0.4-0.9,0.4c-0.5,0-1,0-1.5,0c-6.4,0.3-12.8,1.6-19,3.2c-6.2,1.6-12.3,3.5-18.3,5.8c-1.4,0.5-2.8,1.1-4.1,1.8
		c-0.4,0.2-1.5,0.5-1.7,0.9c-0.3,0.6-0.4,1.3-0.5,2c-0.6,3.2-1,6.4-1.4,9.6c-0.2,1.5-0.4,3.1-0.6,4.6c-0.2,1.6-0.5,3.2-0.5,4.8
		c0,1.3,1.8,2.3,2.7,3c1.3,1,2.6,2,3.9,2.9c5.1,3.6,10.5,7,16,10c5.4,3,11.1,5.7,17,7.5c0.4,0.1,0.7,0.2,1.1,0.3c0,0.4,0,0.8,0,1.2
		c0,0.8,0,1.6,0,2.3c0,1.7,0.1,3.4,0.2,5.1c0.1,3.3,0.4,6.5,0.7,9.8c0.1,1.6,0.3,3.1,0.5,4.7c0.1,0.8,0.2,1.6,0.3,2.4
		c0.1,0.5,0.3,0.7-0.2,0.9c-0.4,0.2-0.9,0.4-1.3,0.6c-2.8,1.3-5.4,2.8-8,4.4c-5.3,3.3-10.4,7.1-15.2,11.1c-2.4,2-4.8,4-7,6.2
		c-1.1,1-2.2,2.1-3.2,3.2c-0.5,0.5-1,1.1-1.5,1.6c-0.5,0.6-0.7,0.8-0.7,1.6c0.3,3.1,1.4,6.2,2.2,9.2c0.8,3.1,1.6,6.2,2.6,9.2
		c0.2,0.6,0.4,1.2,0.7,1.7c0.3,0.6,1.2,0.7,1.7,0.9c1.6,0.5,3.1,0.9,4.7,1.3c3.2,0.8,6.4,1.4,9.6,2c6.4,1.1,12.8,1.9,19.3,2.2
		c3.3,0.1,6.5,0.1,9.8-0.2c0.4,0,0.7-0.1,1.1-0.1c0.6-0.1,0.5,0.2,0.7,0.7c0.3,0.7,0.6,1.4,0.9,2.1c0.7,1.5,1.3,3,2,4.5
		c1.3,2.8,2.7,5.7,4.1,8.4c0.7,1.3,1.4,2.7,2.1,4c0.4,0.7,0.7,1.3,1.1,2c0.2,0.3,0.4,0.7,0.5,1c0.3,0.5,0.7,0.8,0.3,1.2
		c-4.3,4.4-7.9,9.6-11.1,14.8c-3.4,5.4-6.4,11.1-9.1,16.8c-0.6,1.4-1.3,2.7-1.8,4.1c-0.3,0.7-0.6,1.4-0.8,2.1
		c-0.2,0.5-0.8,1.7-0.7,2.2c0.4,1.2,1.4,2.3,2.2,3.3c1,1.4,2,2.7,3,4c2,2.6,3.9,5.1,5.9,7.6c0.7,0.9,1.6,2.5,2.8,2.4
		c1.6-0.1,3.2-0.3,4.8-0.5c6.4-0.9,12.8-2.3,19-4.1c6-1.7,12-3.6,17.7-6.4c0.7-0.3,1.3-0.7,2-1c0.3-0.2,0.7-0.4,1-0.6
		c0.3,0.3,0.5,0.5,0.8,0.8c1.2,1.1,2.3,2.3,3.5,3.4c2.3,2.1,4.6,4.2,7,6.3c2.4,2,4.8,4,7.3,5.9c0.3,0.2,0.6,0.5,0.9,0.7
		c0.4,0.3,0.2,0.5,0,0.9c-0.3,0.7-0.5,1.4-0.8,2.1c-0.5,1.6-1,3.1-1.4,4.7c-1.6,6.2-2.7,12.7-3.4,19.1c-0.3,3.2-0.6,6.4-0.8,9.6
		c-0.2,3.2-0.3,6.5,0,9.6c0.1,1.1,1.9,1.8,2.7,2.3c1.4,0.9,2.9,1.7,4.3,2.6c2.8,1.6,5.6,3.2,8.4,4.8c1.1,0.6,2.4,1.6,3.6,1.7
		c0.6,0.1,1.4-0.6,1.9-0.8c0.8-0.4,1.5-0.8,2.3-1.3c2.7-1.6,5.4-3.3,8-5.1c5.2-3.5,10.2-7.3,14.9-11.5c2.3-2,4.6-4.2,6.7-6.4
		c1-1.1,2-2.2,2.9-3.4c0.3-0.4,0.5-0.2,0.9,0c0.4,0.1,0.7,0.3,1.1,0.4c0.8,0.3,1.7,0.7,2.5,1c5.9,2.3,12,4.3,18.1,6.1
		c0.7,0.2,1.5,0.4,2.2,0.6c0.5,0.2,0.4,0.3,0.4,0.9c0,0.4,0,0.8,0,1.1c0.1,1.6,0.2,3.3,0.4,4.9c0.4,3.2,1,6.4,1.6,9.5
		c1.4,6.3,3.2,12.5,5.3,18.6c1,3,2.1,5.9,3.4,8.7c0.2,0.4,0.5,1.5,0.9,1.7c0.5,0.2,1.1,0.3,1.7,0.5c1.6,0.3,3.2,0.5,4.9,0.8
		c3.2,0.4,6.5,0.9,9.7,1.2c1.5,0.2,3,0.4,4.5,0.5c0.9,0,1.2-0.1,1.7-0.7c0.6-0.6,1.1-1.3,1.7-2c3.9-4.9,7.3-10.3,10.5-15.7
		c3.1-5.4,6.1-10.9,8.3-16.7c0.5-1.4,1-2.8,1.5-4.2c0.1-0.4,0.2-0.7,0.3-1.1c0.1-0.5,0.4-0.4,0.9-0.4c0.9,0,1.8,0,2.7,0
		c3.3-0.1,6.5-0.2,9.8-0.4c3.3-0.2,6.5-0.5,9.8-0.9c0.8-0.1,1.6-0.2,2.4-0.3c0.5-0.1,0.7-0.3,0.9,0.2c0.1,0.3,0.3,0.7,0.4,1
		c0.6,1.4,1.4,2.8,2.1,4.2c3,5.5,6.7,10.6,10.5,15.5c3.8,4.9,7.9,9.8,12.4,14.1c0.7,0.7,1.9,2.2,2.9,2.2c1.6-0.1,3.2-0.6,4.7-1
		c3.2-0.8,6.3-1.7,9.4-2.5c1.4-0.4,2.9-0.8,4.3-1.2c0.6-0.2,1.3-0.4,1.8-0.6c0.8-0.4,0.9-1.1,1.2-1.9c1-3,1.7-6.2,2.3-9.3
		c1.3-6.3,2.3-12.8,2.8-19.2c0.3-3.3,0.4-6.5,0.4-9.8c0-1.6-0.1-3.1-0.2-4.7c0-0.4-0.1-0.7-0.1-1.1c-0.1-0.5-0.3-0.7,0.3-0.9
		c0.8-0.3,1.6-0.7,2.4-1c5.8-2.5,11.4-5.2,16.9-8.2c1.3-0.7,2.6-1.4,3.9-2.2c1.1,1.1,2.3,2.2,3.5,3.2c2.4,2,4.9,3.8,7.4,5.5
		c5.3,3.6,10.8,6.7,16.5,9.6c2.8,1.4,5.7,2.8,8.6,4c1.4,0.6,2.7,1.1,4.2,1.5c0.3,0.1,1.1-0.5,1.3-0.7c0.7-0.5,1.4-1,2.1-1.5
		c2.6-1.9,5.2-3.9,7.7-5.9c1.2-0.9,2.4-1.9,3.6-2.8c0.9-0.7,2.8-1.8,2.7-3.1c-0.2-6.4-1.8-12.8-3.3-19c-1.5-6.2-3.3-12.3-5.7-18.1
		c-0.6-1.4-1.2-2.7-1.8-4.1c-0.3-0.7-0.7-1.3-1-2c-0.2-0.3-0.4-0.7-0.5-1c-0.3-0.5,0.2-0.7,0.6-1.1c2.2-2.2,4.3-4.5,6.4-6.9
		c2.1-2.3,4.1-4.7,6.1-7.1c1-1.2,1.9-2.3,2.8-3.5c0.2-0.3,0.5-0.6,0.7-0.9c0.3-0.4,0.3-0.7,0.8-0.4c0.8,0.3,1.7,0.6,2.5,0.9
		c6.1,2.1,12.5,3.3,18.8,4.2c6.4,0.9,12.8,1.5,19.3,1.6c1.5,0,3.1,0,4.6-0.1c0.7-0.1,0.8-0.1,1.3-0.7c0.5-0.7,1-1.4,1.4-2.1
		c1.7-2.8,3.3-5.6,4.9-8.4c0.8-1.3,1.5-2.7,2.3-4c0.6-1.1,1.7-2.6,1.9-3.9c0.1-0.6-0.6-1.4-0.8-1.9c-0.3-0.7-0.7-1.3-1.1-2
		c-0.8-1.4-1.7-2.8-2.5-4.2c-3.4-5.3-7.1-10.4-11-15.3c-3.9-4.8-8.1-9.5-13-13.3c-0.4-0.3-0.2-0.5,0-0.9c0.1-0.4,0.3-0.7,0.4-1.1
		c0.3-0.7,0.6-1.4,0.8-2.1c0.6-1.5,1.2-3.1,1.7-4.6c1.1-3,2.1-6,3-9c0.5-1.5,0.9-2.9,1.3-4.4c0.2-0.7,0.4-1.5,0.6-2.2
		c0.1-0.5,0-0.7,0.6-0.7c0.5,0,1,0,1.5,0c3.2-0.1,6.3-0.6,9.5-1.1c6.4-1.1,12.6-2.7,18.8-4.7c3-1,6-2,9-3.1c1.4-0.5,2.8-1.1,4.1-1.7
		c0.7-0.3,1.3-0.6,1.9-1c0.4-0.2,0.5-1.4,0.5-1.8c0.6-3.3,1-6.6,1.4-9.9c0.2-1.7,0.4-3.3,0.6-5C653.1,327.9,653.5,326.1,653.3,324.6
		C653.3,324.4,653.3,325.1,653.3,324.6z M574.9,296.4c0.8,25.3-4.1,50.2-13.6,73.5c-9.1,22.1-23.3,42.3-40.5,58.8
		c-18,17.2-39.7,30.5-63.3,38.6c-23.8,8.2-49.1,11.4-74.2,9c-24.8-2.4-49.1-10.2-70.7-22.6c-21.3-12.3-40-29.1-54.4-49
		c-14.6-20.2-24.8-43.5-29.7-67.9c-5-24.6-4.7-50.2,1.1-74.6c5.6-23.7,16.1-46.2,30.8-65.6c14.9-19.8,34-36.3,55.8-48.2
		c22.4-12.2,47.4-19.3,72.8-21c24.9-1.7,50.3,2.3,73.6,11.2c22.7,8.7,43.5,22.1,60.7,39.2c17.6,17.5,31.4,38.6,40.2,61.8
		C570.4,257.7,574.3,277,574.9,296.4C575,297.6,574.9,296.3,574.9,296.4z"/>
	<path id="Cog" style="fill:#FFFFFF;" d="M653.3,322.6c-0.1-0.6-0.8-1.1-1.3-1.5c-0.6-0.5-1.2-1-1.7-1.4c-1.3-1-2.6-2-3.9-2.9
		c-2.6-1.8-5.2-3.5-7.9-5.2c-5.3-3.3-10.8-6.3-16.5-8.9c-2.8-1.3-5.7-2.4-8.7-3.2c-0.5-0.1-0.7,0-0.7-0.6c0-0.4,0-0.8,0-1.2
		c0-0.8,0-1.6,0-2.3c0-1.7-0.1-3.4-0.2-5.1c-0.2-3.3-0.4-6.5-0.7-9.8c-0.1-1.6-0.3-3.1-0.5-4.7c-0.1-0.8-0.2-1.6-0.3-2.4
		c-0.1-0.6,0.1-0.5,0.6-0.7c0.4-0.2,0.9-0.4,1.3-0.6c5.6-2.6,10.8-6.1,15.8-9.8c5-3.7,9.9-7.7,14.4-12c1.1-1,2.2-2.1,3.2-3.2
		c0.5-0.5,1-1.1,1.5-1.6c0.5-0.6,0.5-0.9,0.4-1.7c-0.5-3.1-1.5-6.2-2.3-9.3c-0.8-3.1-1.6-6.2-2.6-9.2c-0.2-0.5-0.3-1.2-0.7-1.6
		c-0.3-0.4-1.4-0.6-2-0.8c-1.6-0.5-3.2-0.9-4.7-1.3c-6.3-1.5-12.7-2.6-19.2-3.3c-6.4-0.7-13-1.2-19.5-0.5c-0.4,0-0.7,0.1-1.1,0.1
		c-0.1-0.4-0.3-0.7-0.4-1c-0.3-0.7-0.6-1.4-0.9-2.1c-0.7-1.5-1.3-3-2-4.5c-1.3-2.8-2.7-5.7-4.1-8.4c-0.7-1.3-1.4-2.6-2.1-4
		c-0.4-0.7-0.7-1.3-1.1-2c-0.2-0.3-0.4-0.6-0.5-1c-0.4-0.7-0.4-0.6,0.1-1.2c2.1-2.2,4-4.6,5.8-7c3.7-5.1,7-10.6,10-16.2
		c1.5-2.8,2.9-5.7,4.3-8.6c0.6-1.4,1.2-2.7,1.8-4.1c0.3-0.7,0.5-1.4,0.8-2.1c0.2-0.5,0.7-1.5,0.4-2c-1.4-2.7-3.5-5.1-5.3-7.5
		c-2-2.6-3.9-5.1-5.9-7.6c-0.4-0.5-0.8-1.1-1.3-1.5c-0.5-0.6-0.9-0.6-1.7-0.6c-1.6,0.1-3.2,0.3-4.8,0.5c-3.2,0.5-6.4,1.1-9.6,1.8
		c-6.3,1.4-12.5,3.1-18.5,5.2c-2.9,1-5.8,2.2-8.5,3.6c-0.7,0.3-1.3,0.7-2,1.1c-0.4,0.2-0.5,0.5-0.9,0.1c-0.3-0.3-0.5-0.5-0.8-0.8
		c-1.2-1.1-2.3-2.3-3.5-3.4c-4.6-4.3-9.3-8.3-14.3-12.2c-0.3-0.2-0.6-0.5-0.9-0.7c0.1-0.4,0.3-0.7,0.4-1.1c0.3-0.7,0.5-1.4,0.8-2.1
		c0.5-1.6,1-3.1,1.4-4.7c0.8-3.1,1.5-6.3,2-9.5c1.1-6.4,1.7-12.8,2.1-19.2c0.2-3.2,0.3-6.4-0.1-9.6c0-0.3-0.9-0.8-1.1-1
		c-0.6-0.4-1.2-0.8-1.9-1.2c-1.4-0.9-2.9-1.7-4.3-2.6c-2.8-1.6-5.6-3.2-8.4-4.8c-0.7-0.4-2.7-1.9-3.5-1.5c-1.5,0.6-2.9,1.4-4.3,2.3
		c-5.4,3.2-10.6,6.8-15.6,10.6c-4.9,3.8-9.7,7.8-13.9,12.4c-1,1.1-2,2.3-2.9,3.5c-1.5-0.6-3.1-1.2-4.6-1.8c-3-1.1-6-2.2-9-3.2
		c-3-1-6.1-1.9-9.1-2.8c-0.7-0.2-1.5-0.4-2.2-0.6c0-0.8,0-1.5,0-2.3c-0.1-1.6-0.2-3.3-0.4-4.9c-0.8-6.4-2.3-12.7-4.1-18.9
		c-1.7-6-3.6-12.2-6.4-17.9c-0.2-0.4-0.4-1.2-0.9-1.4c-0.6-0.2-1.2-0.3-1.8-0.5c-1.6-0.3-3.3-0.5-4.9-0.8c-3.2-0.5-6.5-0.8-9.7-1.2
		c-1.5-0.2-3-0.4-4.5-0.4c-1.4,0-2.5,2-3.3,3c-1.9,2.5-3.7,5.1-5.5,7.7c-3.5,5.2-6.6,10.7-9.5,16.3c-1.4,2.8-2.7,5.6-3.8,8.5
		c-0.5,1.4-1,2.8-1.4,4.2c-0.1,0.4-0.2,0.7-0.3,1.1c-0.4,0-0.8,0-1.2,0c-0.9,0-1.8,0-2.7,0c-6.5,0.1-13.1,0.6-19.6,1.4
		c-0.8,0.1-1.6,0.2-2.4,0.3c-0.6,0.1-0.5-0.1-0.7-0.6c-0.1-0.3-0.3-0.7-0.4-1c-0.7-1.4-1.4-2.8-2.2-4.2c-1.5-2.7-3.2-5.4-5-7.9
		c-3.5-5.2-7.5-10.1-11.6-14.8c-2.1-2.3-4.2-4.7-6.4-6.8c-0.5-0.5-1.1-1-1.6-1.5c-0.5-0.4-0.7-0.5-1.4-0.4c-1.6,0.2-3.2,0.6-4.7,1
		c-3.2,0.8-6.3,1.7-9.4,2.5c-1.4,0.4-2.9,0.8-4.3,1.2c-0.6,0.2-1.2,0.4-1.7,0.7c-0.6,0.4-0.8,1.4-1,2.1c-1.9,6.1-3.1,12.6-4,18.9
		c-0.9,6.4-1.6,12.9-1.4,19.4c0,1.6,0.1,3.1,0.3,4.7c0,0.4,0.1,0.8,0.1,1.1c0.1,0.6-0.2,0.5-0.7,0.7c-0.8,0.3-1.6,0.7-2.4,1
		c-2.9,1.3-5.7,2.6-8.6,4c-2.8,1.4-5.6,2.8-8.3,4.3c-0.7,0.4-1.3,0.7-2,1.1c-0.3,0.2-0.7,0.4-1,0.5c-0.4,0.2-0.5,0.5-0.9,0.1
		c-1.1-1.1-2.3-2.2-3.5-3.2c-4.8-4-10.1-7.4-15.5-10.5c-5.5-3.2-11.2-6.2-17.1-8.5c-0.7-0.3-1.4-0.5-2.1-0.8
		c-0.4-0.1-1.4-0.7-1.8-0.5c-1.3,0.5-2.5,1.6-3.6,2.4c-2.6,1.9-5.2,3.9-7.7,5.9c-1.2,0.9-2.4,1.9-3.6,2.8c-0.5,0.4-1.1,0.9-1.6,1.3
		c-0.7,0.6-0.9,1-0.8,1.9c0.2,3.2,0.7,6.3,1.3,9.4c1.2,6.4,2.7,12.7,4.7,18.8c0.9,3,2,5.9,3.1,8.8c0.6,1.4,1.2,2.7,1.8,4.1
		c0.3,0.7,0.7,1.3,1,2c0.2,0.3,0.4,0.7,0.6,1c-0.4,0.4-0.7,0.7-1.1,1.1c-4.4,4.5-8.6,9.2-12.5,14c-1,1.2-1.9,2.3-2.8,3.5
		c-0.2,0.3-0.5,0.6-0.7,0.9c-0.3,0.4-0.5,0.2-0.9,0c-0.8-0.3-1.7-0.6-2.5-0.9c-3-1-6.1-1.8-9.3-2.5c-6.3-1.3-12.7-2.2-19.2-2.7
		c-3.2-0.3-6.5-0.5-9.7-0.5c-1.5,0-3.1,0-4.6,0.2c-1.1,0.1-2,2.2-2.5,3.1c-1.7,2.8-3.3,5.6-4.9,8.4c-0.8,1.3-1.5,2.7-2.3,4
		c-0.4,0.7-0.7,1.3-1.1,2c-0.2,0.5-0.9,1.4-0.6,1.9c1.2,2.9,3,5.5,4.6,8.1c1.7,2.7,3.5,5.2,5.3,7.8c3.7,5,7.6,9.9,11.9,14.4
		c2.2,2.2,4.4,4.4,6.9,6.3c-1.2,2.9-2.3,5.9-3.4,8.9c-1.1,3-2.1,6-3,9c-0.5,1.5-0.9,2.9-1.3,4.4c-0.2,0.7-0.4,1.5-0.6,2.2
		c-0.2,0.5-0.3,0.4-0.9,0.4c-0.5,0-1,0-1.5,0c-6.4,0.3-12.8,1.6-19,3.2c-6.2,1.6-12.3,3.5-18.3,5.8c-1.4,0.5-2.8,1.1-4.1,1.8
		c-0.4,0.2-1.5,0.5-1.7,0.9c-0.3,0.6-0.4,1.3-0.5,2c-0.6,3.2-1,6.4-1.4,9.6c-0.2,1.5-0.4,3.1-0.6,4.6c-0.2,1.6-0.5,3.2-0.5,4.8
		c0,1.3,1.8,2.3,2.7,3c1.3,1,2.6,2,3.9,2.9c5.1,3.6,10.5,7,16,10c5.4,3,11.1,5.7,17,7.5c0.4,0.1,0.7,0.2,1.1,0.3c0,0.4,0,0.8,0,1.2
		c0,0.8,0,1.6,0,2.3c0,1.7,0.1,3.4,0.2,5.1c0.1,3.3,0.4,6.5,0.7,9.8c0.1,1.6,0.3,3.1,0.5,4.7c0.1,0.8,0.2,1.6,0.3,2.4
		c0.1,0.5,0.3,0.7-0.2,0.9c-0.4,0.2-0.9,0.4-1.3,0.6c-2.8,1.3-5.4,2.8-8,4.4c-5.3,3.3-10.4,7.1-15.2,11.1c-2.4,2-4.8,4-7,6.2
		c-1.1,1-2.2,2.1-3.2,3.2c-0.5,0.5-1,1.1-1.5,1.6c-0.5,0.6-0.7,0.8-0.7,1.6c0.3,3.1,1.4,6.2,2.2,9.2c0.8,3.1,1.6,6.2,2.6,9.2
		c0.2,0.6,0.4,1.2,0.7,1.7c0.3,0.6,1.2,0.7,1.7,0.9c1.6,0.5,3.1,0.9,4.7,1.3c3.2,0.8,6.4,1.4,9.6,2c6.4,1.1,12.8,1.9,19.3,2.2
		c3.3,0.1,6.5,0.1,9.8-0.2c0.4,0,0.7-0.1,1.1-0.1c0.6-0.1,0.5,0.2,0.7,0.7c0.3,0.7,0.6,1.4,0.9,2.1c0.7,1.5,1.3,3,2,4.5
		c1.3,2.8,2.7,5.7,4.1,8.4c0.7,1.3,1.4,2.7,2.1,4c0.4,0.7,0.7,1.3,1.1,2c0.2,0.3,0.4,0.7,0.5,1c0.3,0.5,0.7,0.8,0.3,1.2
		c-4.3,4.4-7.9,9.6-11.1,14.8c-3.4,5.4-6.4,11.1-9.1,16.8c-0.6,1.4-1.3,2.7-1.8,4.1c-0.3,0.7-0.6,1.4-0.8,2.1
		c-0.2,0.5-0.8,1.7-0.7,2.2c0.4,1.2,1.4,2.3,2.2,3.3c1,1.4,2,2.7,3,4c2,2.6,3.9,5.1,5.9,7.6c0.7,0.9,1.6,2.5,2.8,2.4
		c1.6-0.1,3.2-0.3,4.8-0.5c6.4-0.9,12.8-2.3,19-4.1c6-1.7,12-3.6,17.7-6.4c0.7-0.3,1.3-0.7,2-1c0.3-0.2,0.7-0.4,1-0.6
		c0.3,0.3,0.5,0.5,0.8,0.8c1.2,1.1,2.3,2.3,3.5,3.4c2.3,2.1,4.6,4.2,7,6.3c2.4,2,4.8,4,7.3,5.9c0.3,0.2,0.6,0.5,0.9,0.7
		c0.4,0.3,0.2,0.5,0,0.9c-0.3,0.7-0.5,1.4-0.8,2.1c-0.5,1.6-1,3.1-1.4,4.7c-1.6,6.2-2.7,12.7-3.4,19.1c-0.3,3.2-0.6,6.4-0.8,9.6
		c-0.2,3.2-0.3,6.5,0,9.6c0.1,1.1,1.9,1.8,2.7,2.3c1.4,0.9,2.9,1.7,4.3,2.6c2.8,1.6,5.6,3.2,8.4,4.8c1.1,0.6,2.4,1.6,3.6,1.7
		c0.6,0.1,1.4-0.6,1.9-0.8c0.8-0.4,1.5-0.8,2.3-1.3c2.7-1.6,5.4-3.3,8-5.1c5.2-3.5,10.2-7.3,14.9-11.5c2.3-2,4.6-4.2,6.7-6.4
		c1-1.1,2-2.2,2.9-3.4c0.3-0.4,0.5-0.2,0.9,0c0.4,0.1,0.7,0.3,1.1,0.4c0.8,0.3,1.7,0.7,2.5,1c5.9,2.3,12,4.3,18.1,6.1
		c0.7,0.2,1.5,0.4,2.2,0.6c0.5,0.2,0.4,0.3,0.4,0.9c0,0.4,0,0.8,0,1.1c0.1,1.6,0.2,3.3,0.4,4.9c0.4,3.2,1,6.4,1.6,9.5
		c1.4,6.3,3.2,12.5,5.3,18.6c1,3,2.1,5.9,3.4,8.7c0.2,0.4,0.5,1.5,0.9,1.7c0.5,0.2,1.1,0.3,1.7,0.5c1.6,0.3,3.2,0.5,4.9,0.8
		c3.2,0.4,6.5,0.9,9.7,1.2c1.5,0.2,3,0.4,4.5,0.5c0.9,0,1.2-0.1,1.7-0.7c0.6-0.6,1.1-1.3,1.7-2c3.9-4.9,7.3-10.3,10.5-15.7
		c3.1-5.4,6.1-10.9,8.3-16.7c0.5-1.4,1-2.8,1.5-4.2c0.1-0.4,0.2-0.7,0.3-1.1c0.1-0.5,0.4-0.4,0.9-0.4c0.9,0,1.8,0,2.7,0
		c3.3-0.1,6.5-0.2,9.8-0.4c3.3-0.2,6.5-0.5,9.8-0.9c0.8-0.1,1.6-0.2,2.4-0.3c0.5-0.1,0.7-0.3,0.9,0.2c0.1,0.3,0.3,0.7,0.4,1
		c0.6,1.4,1.4,2.8,2.1,4.2c3,5.5,6.7,10.6,10.5,15.5c3.8,4.9,7.9,9.8,12.4,14.1c0.7,0.7,1.9,2.2,2.9,2.2c1.6-0.1,3.2-0.6,4.7-1
		c3.2-0.8,6.3-1.7,9.4-2.5c1.4-0.4,2.9-0.8,4.3-1.2c0.6-0.2,1.3-0.4,1.8-0.6c0.8-0.4,0.9-1.1,1.2-1.9c1-3,1.7-6.2,2.3-9.3
		c1.3-6.3,2.3-12.8,2.8-19.2c0.3-3.3,0.4-6.5,0.4-9.8c0-1.6-0.1-3.1-0.2-4.7c0-0.4-0.1-0.7-0.1-1.1c-0.1-0.5-0.3-0.7,0.3-0.9
		c0.8-0.3,1.6-0.7,2.4-1c5.8-2.5,11.4-5.2,16.9-8.2c1.3-0.7,2.6-1.4,3.9-2.2c1.1,1.1,2.3,2.2,3.5,3.2c2.4,2,4.9,3.8,7.4,5.5
		c5.3,3.6,10.8,6.7,16.5,9.6c2.8,1.4,5.7,2.8,8.6,4c1.4,0.6,2.7,1.1,4.2,1.5c0.3,0.1,1.1-0.5,1.3-0.7c0.7-0.5,1.4-1,2.1-1.5
		c2.6-1.9,5.2-3.9,7.7-5.9c1.2-0.9,2.4-1.9,3.6-2.8c0.9-0.7,2.8-1.8,2.7-3.1c-0.2-6.4-1.8-12.8-3.3-19c-1.5-6.2-3.3-12.3-5.7-18.1
		c-0.6-1.4-1.2-2.7-1.8-4.1c-0.3-0.7-0.7-1.3-1-2c-0.2-0.3-0.4-0.7-0.5-1c-0.3-0.5,0.2-0.7,0.6-1.1c2.2-2.2,4.3-4.5,6.4-6.9
		c2.1-2.3,4.1-4.7,6.1-7.1c1-1.2,1.9-2.3,2.8-3.5c0.2-0.3,0.5-0.6,0.7-0.9c0.3-0.4,0.3-0.7,0.8-0.4c0.8,0.3,1.7,0.6,2.5,0.9
		c6.1,2.1,12.5,3.3,18.8,4.2c6.4,0.9,12.8,1.5,19.3,1.6c1.5,0,3.1,0,4.6-0.1c0.7-0.1,0.8-0.1,1.3-0.7c0.5-0.7,1-1.4,1.4-2.1
		c1.7-2.8,3.3-5.6,4.9-8.4c0.8-1.3,1.5-2.7,2.3-4c0.6-1.1,1.7-2.6,1.9-3.9c0.1-0.6-0.6-1.4-0.8-1.9c-0.3-0.7-0.7-1.3-1.1-2
		c-0.8-1.4-1.7-2.8-2.5-4.2c-3.4-5.3-7.1-10.4-11-15.3c-3.9-4.8-8.1-9.5-13-13.3c-0.4-0.3-0.2-0.5,0-0.9c0.1-0.4,0.3-0.7,0.4-1.1
		c0.3-0.7,0.6-1.4,0.8-2.1c0.6-1.5,1.2-3.1,1.7-4.6c1.1-3,2.1-6,3-9c0.5-1.5,0.9-2.9,1.3-4.4c0.2-0.7,0.4-1.5,0.6-2.2
		c0.1-0.5,0-0.7,0.6-0.7c0.5,0,1,0,1.5,0c3.2-0.1,6.3-0.6,9.5-1.1c6.4-1.1,12.6-2.7,18.8-4.7c3-1,6-2,9-3.1c1.4-0.5,2.8-1.1,4.1-1.7
		c0.7-0.3,1.3-0.6,1.9-1c0.4-0.2,0.5-1.4,0.5-1.8c0.6-3.3,1-6.6,1.4-9.9c0.2-1.7,0.4-3.3,0.6-5C653.1,325.9,653.5,324.1,653.3,322.6
		C653.3,322.4,653.3,323.1,653.3,322.6z M574.9,294.4c0.8,25.3-4.1,50.2-13.6,73.5c-9.1,22.1-23.3,42.3-40.5,58.8
		c-18,17.2-39.7,30.5-63.3,38.6c-23.8,8.2-49.1,11.4-74.2,9c-24.8-2.4-49.1-10.2-70.7-22.6c-21.3-12.3-40-29.1-54.4-49
		c-14.6-20.2-24.8-43.5-29.7-67.9c-5-24.6-4.7-50.2,1.1-74.6c5.6-23.7,16.1-46.2,30.8-65.6c14.9-19.8,34-36.3,55.8-48.2
		c22.4-12.2,47.4-19.3,72.8-21c24.9-1.7,50.3,2.3,73.6,11.2c22.7,8.7,43.5,22.1,60.7,39.2c17.6,17.5,31.4,38.6,40.2,61.8
		C570.4,255.7,574.3,275,574.9,294.4C575,295.6,574.9,294.3,574.9,294.4z"/>
</g>
<g id="Eagle">
	<g id="_x33_322_Numbers">
		<path id="_x32_-2_Outline" style="fill:none;stroke:#000000;stroke-width:2;" d="M414.1,184.7c2.2-1.6,4.5-4.1,5.8-7.1
			c0.8-1.8,1-3.3,1-5.1c0.1-5.6-1.8-11-6.2-15.3c-4.5-4.4-10.3-6-17.1-6c-4.8,0-9.1,1.2-12.9,3.5c1.1,0.7,2.2,1.5,3.1,2.5
			c3.7,3.6,5.6,7.9,6.1,12.5c0.8-1,2.2-1.7,3.7-1.7c2.8,0,4.7,1.9,4.7,4.2c0,0.2,0,0.5-0.1,0.8c-0.9,1.6-1.5,1.9-2.6,2.8
			c-0.3,0.3-15.3,11.2-21.5,15.7h15.9v15.7h26.9v-15.7h-17L414.1,184.7z"/>
		<path id="_x32_-2_Character" style="fill:#FFFFFF;" d="M414.1,183.7c2.2-1.6,4.5-4.1,5.8-7.1c0.8-1.8,1-3.3,1-5.1
			c0.1-5.6-1.8-11-6.2-15.3c-4.5-4.4-10.3-6-17.1-6c-4.8,0-9.1,1.2-12.9,3.5c1.1,0.7,2.2,1.5,3.1,2.5c3.7,3.6,5.6,7.9,6.1,12.5
			c0.8-1,2.2-1.7,3.7-1.7c2.8,0,4.7,1.9,4.7,4.2c0,0.2,0,0.5-0.1,0.8c-0.9,1.6-1.5,1.9-2.6,2.8c-0.3,0.3-15.3,11.2-21.5,15.7h15.9
			v15.7h26.9v-15.7h-17L414.1,183.7z"/>
		<path id="_x32_-1_Outline" style="fill:none;stroke:#000000;stroke-width:2;" d="M387.3,184.7c2.2-1.6,4.5-4.1,5.8-7.1
			c0.8-1.8,1-3.3,1-5.1c0.1-5.6-1.8-11-6.2-15.3c-4.5-4.4-10.3-6-17.1-6c-1.1,0-2.2,0.1-3.3,0.2h0.2L357.2,170l9,1.7
			c0.3-2.1,2.2-3.7,4.6-3.7c2.8,0,4.7,1.9,4.7,4.2c0,0.2,0,0.5-0.1,0.8c-0.9,1.6-1.5,1.9-2.6,2.8c-0.1,0.1-2.9,2.2-6.5,4.8
			c0.6,1.8,1,3.8,1,6c0,10-7.6,18.3-17.9,20.6h44.6v-15.7h-17L387.3,184.7z"/>
		<path id="_x32_-1_Character" style="fill:#FFFFFF;" d="M387.3,183.7c2.2-1.6,4.5-4.1,5.8-7.1c0.8-1.8,1-3.3,1-5.1
			c0.1-5.6-1.8-11-6.2-15.3c-4.5-4.4-10.3-6-17.1-6c-1.1,0-2.2,0.1-3.3,0.2h0.2L357.2,169l9,1.7c0.3-2.1,2.2-3.7,4.6-3.7
			c2.8,0,4.7,1.9,4.7,4.2c0,0.2,0,0.5-0.1,0.8c-0.9,1.6-1.5,1.9-2.6,2.8c-0.1,0.1-2.9,2.2-6.5,4.8c0.6,1.8,1,3.8,1,6
			c0,10-7.6,18.3-17.9,20.6h44.6v-15.7h-17L387.3,183.7z"/>
		<path id="_x33_-2_Outline" style="fill:none;stroke:#000000;stroke-width:2;" d="M356.9,170.5l10.8-19H341l-8.1,14.3l12.9,0.2
			l-8.3,10.7c0.5,0.7,0.9,1.3,1.2,2.1l7.9,2.7c2.7,0.9,2.8,4.1,2.7,5.2c-0.3,2.7-2.4,4.9-5.4,4.9c-1.3,0-2.6-0.4-3.7-1.1
			c-1.1,5.6-4.7,10.4-9.6,13.5c3.8,2.4,8.3,3.8,13.3,3.8c12.9,0,23.3-9.4,23.3-21.2C367.3,178.6,362.2,173.1,356.9,170.5z"/>
		<path id="_x33_-2_Character" style="fill:#FFFFFF;" d="M356.9,169.5l10.8-19H341l-8.1,14.3l12.9,0.2l-8.3,10.7
			c0.5,0.7,0.9,1.3,1.2,2.1l7.9,2.7c2.7,0.9,2.8,4.1,2.7,5.2c-0.3,2.7-2.4,4.9-5.4,4.9c-1.3,0-2.6-0.4-3.7-1.1
			c-1.1,5.6-4.7,10.4-9.6,13.5c3.8,2.4,8.3,3.8,13.3,3.8c12.9,0,23.3-9.4,23.3-21.2C367.3,177.6,362.2,172.1,356.9,169.5"/>
		<path id="_x33_-1_Outline" style="fill:none;stroke:#000000;stroke-width:2;" d="M341,151.4h-43.4l0.8,14.1l20.8,0.4l-9.3,12
			l10.2,3.5c2.7,0.9,2.8,4.1,2.7,5.2c-0.3,2.7-2.4,4.9-5.4,4.9c-2.9,0-5.7-2-7.2-4.8c-0.1-0.2-15.7,3.6-15.7,3.6
			c2,9.9,11.4,17.4,22.9,17.4c12.9,0,23.3-9.4,23.3-21.2c0-8.1-5.1-13.7-10.4-16.2L341,151.4z"/>
		<path id="_x33_-1_Character" style="fill:#FFFFFF;" d="M330.3,169.5c5.3,2.6,10.4,8.1,10.4,16.2c0,11.7-10.4,21.2-23.3,21.2
			c-11.4,0-20.9-7.5-22.9-17.4c0,0,15.6-3.7,15.7-3.6c1.5,2.8,4.3,4.8,7.2,4.8c3,0,5.1-2.2,5.4-4.9c0.2-1.1,0-4.3-2.7-5.2L310,177
			l9.3-12l-20.8-0.4l-0.8-14.1H341L330.3,169.5z"/>
	</g>
	<g id="Eagle_Elements">
		<g id="Head">
			<g>
				<path style="fill:#76B2DD;" d="M539.6,355.5l-213.2-17.1c37.5-4.2,71.7-26.4,88.7-49.9l0,0c0,30.9,95.4,32,119.2,55.5
					C537.3,351.3,539.6,355.5,539.6,355.5z"/>
				<path style="fill:#FFFFFF;" d="M516.9,205.2c18.1,21.8,9.3,48.2,9.3,48.2c-9.1,38.6,1.1,73.2,8.1,90.5
					c-23.8-23.5-119.2-24.5-119.2-55.5l0,0c10-13.9,14-28.3,9.1-39.7c0.9-3,1.7-5.5,2.3-7.6c3.4-12.1,2.2-14.6-6-30.9
					C446.6,183.8,498.8,183.5,516.9,205.2z"/>
				<path style="fill:#B3B3B3;" d="M420.5,210.2c8.1,16.3,9.4,18.8,6,30.9c0,0-32.4-5.7-30.2,3.3c-4.5,3.6-8.8,15.1-8.8,15.1
					C378.7,211.8,420.5,210.2,420.5,210.2z"/>
				<path style="fill:#B3B3B3;" d="M426.5,241.1c-0.6,2.2-1.4,4.7-2.3,7.6c-13.4-0.6-27.9-4.3-27.9-4.3
					C394.1,235.4,426.5,241.1,426.5,241.1z"/>
			</g>
			<g>
				<path style="fill:none;stroke:#231F20;stroke-width:3.75;" d="M420.5,210.2c0,0-41.8,1.5-33,49.3c0,0,4.3-11.5,8.8-15.1
					c0,0,14.5,3.7,27.9,4.3c4.9,11.4,0.9,25.8-9.1,39.7c-17,23.6-51.2,45.8-88.7,49.9l213.2,17.1c0,0-2.4-4.2-5.3-11.6
					c-7-17.2-17.2-51.9-8.1-90.5c0,0,8.8-26.4-9.3-48.2C498.8,183.5,446.6,183.8,420.5,210.2z"/>
				<path style="fill:none;stroke:#231F20;stroke-width:1.25;" d="M420.5,210.2c8.1,16.3,9.4,18.8,6,30.9c-0.6,2.2-1.4,4.7-2.3,7.6"
					/>
				<path style="fill:none;stroke:#231F20;stroke-width:1.25;" d="M396.2,244.4c-2.2-9,30.2-3.3,30.2-3.3"/>
			</g>
		</g>
		<g id="Eye_1_">
			<g>
				<path style="fill:#76B2DD;" d="M459.3,219.1c8.5,8.8-21.9,0.7-21.9,0.7S450.8,210.3,459.3,219.1z"/>
			</g>
			<g>
				<path style="fill:none;stroke:#231F20;" d="M437.4,219.7c0,0,13.4-9.4,21.9-0.7C467.8,227.8,437.4,219.7,437.4,219.7z"/>
			</g>
		</g>
		<path id="Wings" style="fill:#76B2DD;stroke:#231F20;stroke-width:3.75;stroke-miterlimit:6;" d="M524,276.2
			c0,0,77.1,46.1,51.1,130.2l-11-9c0,0,1,20.6-14.6,43.7l-8.2-16.3c0,0-13.1,30.2-23.1,40.5l-7.5-18.8c0,0-18.5,32-43,49.7l4.3-32
			c0,0-33.4,28.4-77,36.6l30.2-40.8c0,0-39.4,29.8-111.5,22.7l60.7-41.9c0,0-60,21-111.5,5l73.1-36.2c0,0-42.6,11.7-109-15.6
			l76-20.9c0,0-71,0.4-111.5-49.3l61.8,2.8c0,0-46.2-31.6-44.4-75.3l43.3,39.4c0,0-22.7-27.3-1.8-98.7c0,0,10.6,90.8,81.8,128.2
			c71.2,37.4,138.8,23.5,175.6-23.5l1.2,9.7L524,276.2z"/>
		<g id="Feather_Dividers">
			<polygon style="fill:#231F20;" points="561.7,350.5 565.9,397.3 562.2,397.4 			"/>
			<path style="fill:#231F20;" d="M544.8,352.6c0,0,1.2,4.5,2.3,11.3c0.6,3.4,1.2,7.4,1.6,11.7c0.3,2.2,0.4,4.4,0.6,6.6
				c0.2,2.3,0.2,4.6,0.3,6.9c0.1,2.3,0,4.6-0.1,6.9c-0.1,2.3-0.3,4.5-0.5,6.7c-0.3,2.2-0.5,4.3-0.9,6.2c-0.4,2-0.8,3.8-1.2,5.6
				c-0.5,1.7-1,3.2-1.4,4.6c-0.4,1.4-1,2.5-1.4,3.5c-0.8,1.9-1.3,3-1.3,3l-3.2-1.7c0,0,0.5-1,1.4-2.7c0.4-0.9,1.1-1.9,1.5-3.2
				c0.5-1.3,1-2.7,1.6-4.3c0.4-1.6,0.9-3.4,1.4-5.3c0.4-1.9,0.7-3.9,1.1-6c0.3-2.1,0.5-4.3,0.8-6.5c0.1-2.2,0.4-4.5,0.4-6.8
				c0-2.3,0.1-4.6,0-6.8c0-2.3-0.1-4.5-0.2-6.6c-0.2-4.3-0.6-8.3-1-11.7C545.7,357.1,544.8,352.6,544.8,352.6"/>
			<path style="fill:#231F20;" d="M524.8,353.9c0,0,0.4,1.5,0.8,4c0.3,1.3,0.5,2.9,0.8,4.7c0.2,1.8,0.6,3.8,0.8,6.1
				c0.2,2.2,0.5,4.7,0.6,7.2c0.2,2.6,0.2,5.3,0.3,8.1c0,2.8,0,5.7-0.2,8.7c-0.2,2.9-0.3,6-0.7,8.9c-0.2,1.5-0.4,3-0.6,4.5
				c-0.2,1.5-0.5,3-0.8,4.4c-0.3,1.5-0.5,2.9-0.8,4.3c-0.4,1.4-0.7,2.8-1.1,4.2c-0.4,1.4-0.7,2.7-1,4c-0.4,1.3-0.9,2.6-1.3,3.8
				c-0.8,2.5-1.6,4.8-2.6,6.9c-0.9,2.1-1.7,4-2.5,5.7c-0.9,1.6-1.7,3-2.3,4.2c-1.3,2.3-2,3.7-2,3.7l-3.1-1.9c0,0,0.8-1.3,2.1-3.5
				c0.7-1.1,1.5-2.4,2.4-4c0.8-1.6,1.7-3.4,2.6-5.4c1-2,1.9-4.2,2.7-6.6c0.5-1.2,0.9-2.4,1.4-3.7c0.4-1.3,0.8-2.6,1.2-3.9
				c0.4-1.3,0.8-2.7,1.2-4.1c0.3-1.4,0.6-2.8,1-4.2c0.3-1.4,0.7-2.9,0.9-4.3c0.2-1.5,0.5-2.9,0.7-4.4c0.6-2.9,0.7-5.9,1.1-8.8
				c0.2-2.9,0.4-5.8,0.5-8.6c0-2.8,0.1-5.5,0-8.1c0-2.6-0.2-5-0.3-7.2c-0.1-2.2-0.4-4.3-0.5-6.1c-0.2-1.8-0.4-3.4-0.6-4.7
				C525.1,355.4,524.8,353.9,524.8,353.9"/>
			<path style="fill:#231F20;" d="M502.5,359.3c0,0,1.7,7,1.9,17.7c0.1,2.7,0,5.6-0.1,8.6c-0.1,1.5-0.2,3.1-0.3,4.7
				c-0.1,1.6-0.2,3.2-0.5,4.9c-0.2,1.7-0.4,3.3-0.7,5.1c-0.3,1.7-0.6,3.4-1,5.1c-0.6,3.5-1.6,6.9-2.5,10.4c-0.2,0.9-0.4,1.7-0.7,2.6
				l-0.9,2.5c-0.6,1.7-1.2,3.4-1.7,5c-1.2,3.3-2.7,6.5-4,9.6c-1.4,3.1-3,5.9-4.4,8.6c-1.3,2.8-3.1,5.2-4.5,7.5
				c-0.7,1.1-1.4,2.2-2.1,3.3c-0.3,0.5-0.7,1-1,1.5c-0.4,0.5-0.7,0.9-1,1.4c-1.3,1.7-2.5,3.3-3.4,4.5c-1.9,2.5-3,3.9-3,3.9l-2.8-2.3
				c0,0,1.1-1.4,3-3.8c1-1.2,2.1-2.7,3.5-4.3c0.3-0.4,0.7-0.8,1-1.3c0.3-0.5,0.6-1,1-1.5c0.7-1,1.4-2,2.1-3.1
				c1.4-2.2,3.2-4.5,4.6-7.2c1.4-2.7,3.2-5.4,4.6-8.3c1.4-3,2.9-6,4.2-9.3c0.6-1.6,1.2-3.3,1.9-4.9l0.9-2.5c0.3-0.8,0.5-1.7,0.8-2.5
				c1-3.4,2.1-6.7,2.8-10.2c0.4-1.7,0.8-3.4,1.1-5c0.3-1.7,0.5-3.3,0.8-5c0.3-1.6,0.5-3.3,0.6-4.8c0.2-1.6,0.3-3.1,0.5-4.7
				c0.1-3,0.4-5.9,0.3-8.6C503.9,366.3,502.5,359.3,502.5,359.3"/>
			<path style="fill:#231F20;" d="M478.4,366.3c0,0,0,1.7-0.3,4.8c-0.1,1.5-0.4,3.4-0.6,5.5c-0.3,2.1-0.7,4.5-1.2,7
				c-0.5,2.6-1.2,5.3-1.9,8.2c-0.8,2.9-1.7,5.9-2.8,9c-1.2,3-2.2,6.3-3.7,9.4c-0.7,1.6-1.4,3.2-2.1,4.8c-0.8,1.6-1.6,3.1-2.5,4.6
				c-1.6,3.1-3.5,6.1-5.3,9c-1.7,3-4,5.6-5.9,8.3c-0.5,0.7-1,1.3-1.5,2c-0.5,0.6-1.1,1.2-1.6,1.8c-1.1,1.2-2.1,2.3-3.1,3.5
				c-1,1.1-1.9,2.3-3,3.2c-1,1-2,1.9-3,2.8c-2,1.8-3.6,3.5-5.4,4.8c-1.7,1.3-3.2,2.5-4.4,3.4c-2.5,1.9-3.9,3-3.9,3l-2-3
				c0,0,1.4-1,3.8-2.8c1.2-0.9,2.7-1.9,4.4-3.2c1.7-1.2,3.4-2.9,5.4-4.5c1-0.8,2-1.7,3-2.6c1.1-0.9,2-2,3-3.1c1-1.1,2.1-2.2,3.1-3.3
				c0.5-0.6,1.1-1.1,1.6-1.7c0.5-0.6,1-1.2,1.5-1.9c2-2.6,4.2-5,6.1-7.9c1.9-2.8,3.9-5.6,5.5-8.7c0.9-1.5,1.7-3,2.6-4.5
				c0.8-1.5,1.5-3.1,2.3-4.6c1.6-3,2.7-6.2,4-9.2c1.1-3,2.2-6,3-8.9c0.8-2.9,1.6-5.6,2.2-8.1c0.6-2.5,1-4.9,1.5-7
				c0.3-2.1,0.6-3.9,0.8-5.4C478.4,368,478.4,366.3,478.4,366.3"/>
			<path style="fill:#231F20;" d="M445.8,371.4c0,0-0.6,1.5-1.9,3.9c-1.3,2.5-3.1,6-5.6,10c-1.2,2.1-2.7,4.2-4.2,6.5
				c-1.5,2.3-3.3,4.6-5,7c-1.9,2.3-3.7,4.8-5.8,7.1c-1,1.2-2.1,2.4-3.1,3.6c-1.1,1.2-2.2,2.3-3.3,3.4c-2.2,2.3-4.6,4.5-6.9,6.6
				c-2.3,2.2-4.8,4-7.1,5.9c-2.3,2-4.7,3.5-7,5.1c-1.1,0.8-2.2,1.6-3.3,2.3c-1.1,0.7-2.2,1.3-3.2,1.9c-2.1,1.2-3.9,2.4-5.7,3.3
				c-1.8,0.9-3.3,1.6-4.5,2.3c-2.5,1.3-4,2-4,2l-1.4-3.3c0,0,1.4-0.6,3.9-1.8c1.2-0.6,2.8-1.3,4.5-2c1.7-0.8,3.6-1.9,5.6-3
				c1-0.6,2.1-1.2,3.2-1.8c1.1-0.7,2.2-1.4,3.3-2.1c2.2-1.5,4.7-2.9,7-4.8c2.3-1.8,4.9-3.5,7.2-5.6c2.4-2,4.8-4,7-6.2
				c1.1-1.1,2.3-2.2,3.4-3.3c1.1-1.1,2.2-2.3,3.2-3.4c2.2-2.2,4.1-4.6,6-6.9c1.9-2.3,3.6-4.5,5.3-6.7c1.6-2.2,3.1-4.3,4.4-6.3
				c2.7-3.9,4.6-7.4,6-9.8C445.1,372.8,445.8,371.4,445.8,371.4"/>
			<path style="fill:#231F20;" d="M399.3,367.2c0,0-2.6,4.1-7.5,9.5c-1.2,1.4-2.6,2.8-4.1,4.3c-1.5,1.4-3.1,3-4.8,4.5
				c-0.9,0.8-1.7,1.5-2.6,2.3c-0.9,0.7-1.8,1.5-2.8,2.2c-1.8,1.5-3.9,2.9-5.8,4.3c-2,1.4-4.1,2.7-6.1,4c-2,1.3-4.1,2.4-6.1,3.5
				c-2,1.1-4,2-5.9,2.9c-1.9,1-3.7,1.6-5.4,2.4c-1.7,0.7-3.2,1.4-4.7,1.8c-1.4,0.5-2.6,0.9-3.7,1.2c-2,0.7-3.2,1.1-3.2,1.1l-1-3.5
				c0,0,1.1-0.3,3.2-0.9c1-0.3,2.2-0.6,3.6-1c1.4-0.4,2.9-1,4.6-1.6c1.7-0.6,3.5-1.2,5.4-2.1c1.9-0.8,3.9-1.6,5.9-2.6
				c2-1,4.1-2,6.2-3.2c2-1.2,4.2-2.3,6.2-3.6c2-1.3,4.1-2.6,6-4c1-0.7,1.9-1.4,2.9-2.1c0.9-0.7,1.8-1.4,2.7-2.1
				c1.8-1.4,3.4-2.9,5-4.2c1.5-1.4,3-2.7,4.2-4C396.5,371.1,399.3,367.2,399.3,367.2"/>
			<path style="fill:#231F20;" d="M360.5,351.5c0,0-0.3,1-1.4,2.4c-0.5,0.7-1.2,1.5-2.1,2.4c-0.8,0.9-1.9,1.7-3.1,2.7
				c-1.2,0.8-2.5,1.8-4,2.6c-1.5,0.9-3.1,1.7-4.8,2.5c-1.7,0.8-3.5,1.5-5.3,2.3c-1.8,0.7-3.7,1.3-5.6,2c-1.9,0.6-3.8,1.1-5.7,1.6
				c-1.9,0.5-3.8,0.9-5.6,1.3c-1.8,0.5-3.6,0.8-5.3,1.1c-1.7,0.3-3.3,0.6-4.7,0.9c-1.5,0.3-2.8,0.4-4,0.6c-1.2,0.2-2.2,0.3-3.1,0.4
				c-1.7,0.2-2.7,0.4-2.7,0.4l-0.3-3.6c0,0,1-0.1,2.7-0.2c0.9-0.1,1.9-0.2,3.1-0.3c1.2-0.1,2.5-0.2,4-0.4c1.5-0.2,3-0.4,4.7-0.6
				c1.7-0.2,3.4-0.4,5.2-0.8c1.8-0.3,3.7-0.6,5.6-1c1.9-0.4,3.8-0.9,5.7-1.3c1.9-0.5,3.8-1,5.6-1.6c1.8-0.7,3.6-1.2,5.3-1.9
				c1.7-0.7,3.3-1.4,4.8-2.2c1.5-0.7,2.8-1.6,4.1-2.4c1.2-0.9,2.3-1.6,3.2-2.5c0.9-0.8,1.6-1.6,2.2-2.2
				C360.1,352.5,360.5,351.5,360.5,351.5"/>
			<path style="fill:#231F20;" d="M316.2,332.6c0,0-3.9,0.7-9.9,1.1c-1.5,0.1-3.1,0.2-4.8,0.3c-1.7,0.1-3.5,0.1-5.4,0.2
				c-1.9,0-3.8,0-5.8,0c-2-0.1-4-0.1-6-0.3c-2-0.1-4-0.3-6-0.5c-2-0.2-3.9-0.4-5.8-0.7c-1.9-0.2-3.7-0.6-5.4-0.9
				c-1.7-0.3-3.3-0.6-4.8-1c-1.5-0.4-2.8-0.7-4-1c-1.2-0.4-2.2-0.7-3.1-0.9c-1.7-0.5-2.7-0.8-2.7-0.8l1.2-3.4c0,0,0.9,0.3,2.5,0.9
				c0.8,0.3,1.8,0.6,2.9,1c1.1,0.3,2.4,0.7,3.8,1.2c1.4,0.5,3,0.8,4.6,1.2c1.6,0.4,3.4,0.8,5.2,1.2c1.8,0.4,3.7,0.7,5.6,1
				c1.9,0.3,3.9,0.6,5.8,0.8c2,0.3,3.9,0.4,5.9,0.6c1.9,0.2,3.9,0.2,5.7,0.4c1.9,0,3.7,0.1,5.4,0.1c1.7,0,3.3,0,4.8,0
				C312.2,333,316.2,332.6,316.2,332.6"/>
			<path style="fill:#231F20;" d="M289.5,314.1c0,0-0.7-0.1-1.8-0.5c-0.6-0.1-1.3-0.4-2.1-0.7c-0.8-0.3-1.7-0.6-2.6-1.1
				c-0.9-0.4-2-0.9-3.1-1.4c-1.1-0.6-2.2-1.1-3.3-1.7c-1.2-0.6-2.4-1.2-3.5-2c-1.2-0.7-2.4-1.4-3.6-2.1c-2.4-1.4-4.7-3-6.9-4.5
				c-1.1-0.7-2.2-1.4-3.1-2.1c-1-0.7-1.9-1.4-2.7-2c-3.4-2.5-5.6-4.1-5.6-4.1l2.3-2.8c0,0,2.1,1.8,5.2,4.5c0.8,0.7,1.6,1.4,2.5,2.2
				c0.9,0.8,1.9,1.5,2.9,2.3c2,1.6,4.1,3.4,6.4,5c1.1,0.8,2.2,1.6,3.4,2.4c1.1,0.8,2.2,1.5,3.3,2.2c1.1,0.7,2.2,1.3,3.2,2
				c1,0.6,2,1.1,2.9,1.6c0.9,0.5,1.8,0.9,2.5,1.3c0.8,0.3,1.4,0.7,2,0.9C288.8,313.9,289.5,314.1,289.5,314.1"/>
		</g>
		<g id="Sash">
			<g>
				<path style="fill:#ED1C24;" d="M405.4,299.9c16,17.8,91.8,47.2,159.7,18.6c4.8,7.9,8.9,16.9,11.7,26.9
					c-48.7,26-180.7,11.8-183.9-32l9.5-20.8l0.1,0.1C401.9,294.6,402.9,297.1,405.4,299.9z"/>
				<path style="fill:#ED1C24;" d="M415.1,288.4c-2.8,3.9-6,7.7-9.7,11.4c-2.5-2.8-3.5-5.2-2.9-7.1
					C403.4,290.1,407.4,288.4,415.1,288.4z"/>
			</g>
			<g>
				<path style="fill:none;stroke:#231F20;stroke-width:3.75;" d="M565.1,318.5c4.8,7.9,8.9,16.9,11.7,26.9"/>
				<path style="fill:none;stroke:#231F20;stroke-width:3.75;" d="M415.1,288.4c-2.8,3.9-6,7.7-9.7,11.4c0,0,0,0,0,0"/>
				<path style="fill:none;stroke:#231F20;stroke-width:3.75;stroke-linecap:round;stroke-linejoin:round;" d="M415.1,288.4
					c-7.7,0-11.7,1.6-12.6,4.3c-0.6,1.9,0.4,4.4,2.9,7.1c16,17.8,91.8,47.2,159.7,18.6"/>
				<path style="fill:none;stroke:#231F20;stroke-width:3.75;stroke-linecap:round;stroke-miterlimit:6;" d="M576.8,345.4
					c-48.7,26-180.7,11.8-183.9-32"/>
				
					<line style="fill:none;stroke:#231F20;stroke-width:3.75;stroke-linecap:round;stroke-miterlimit:6;" x1="402.4" y1="292.6" x2="392.9" y2="313.4"/>
			</g>
		</g>
		<g id="Helmet_1_">
			<path style="fill:#B3B3B3;stroke:#231F20;stroke-width:2.75;" d="M435.2,281.8c0,0,46.8,41.5,71.2-9.5c0,0,4.1-7-0.1-16.2
				c0,0-1.3-10.9,7.4-18.8c0,0-25.5-13-27.3-15.9c0,0-2,9.2-13.7,10.7c-11.7,1.5-21.3,2-18.4,12.4c2.9,10.4,13,10.8-4.4,21.9
				C449.9,266.3,420.7,263.1,435.2,281.8z"/>
			<path style="fill:#ED1C24;stroke:#231F20;stroke-width:3.75;" d="M507.4,99.3c-32,0-60.4,14.8-78.9,38l32,10.2
				c12.5-11.1,28.9-17.9,47-17.9c39.1,0,70.7,31.7,70.7,70.7c0,25.8-13.9,48.4-34.6,60.8l5,31.5c35.3-15.8,59.9-51.1,59.9-92.3
				C608.4,144.6,563.2,99.3,507.4,99.3"/>
			<path style="fill:#B3B3B3;stroke:#231F20;stroke-width:1.25;" d="M507,130.3c-18,0-34.3,6.7-46.8,17.8l12.6,17.1
				c8.9-8.5,20.9-13.8,34.2-13.8c27.2,0,49.3,22.1,49.3,49.3c0,18.7-10.4,34.9-25.7,43.3l12.6,17.1c20.5-12.3,34.2-34.8,34.2-60.4
				C577.5,161.9,545.9,130.3,507,130.3"/>
			<path style="fill:#B3B3B3;stroke:#231F20;stroke-width:2.75;stroke-linecap:round;" d="M432.6,201.5c0,0,4-26.6,37.1-38.8
				c0,0,41.6-15.8,66.4,26.4c7.8,13.3,12.2,32.3,1.3,55.9c0,0,3.6,7.5-1.7,10c0,0,2.8,7-1.3,9.7c-4.1,2.8,2.6,4,7.8,4.8
				c5.2,0.7,28.8,22.4,23,32.4c0,0,0.6,6.4-19.4-8.6c-20-15.1-28.2-19.2-28-24.3c0.2-5.2,15.1-32.7,12.5-37.7
				c-2.6-4.9-8.1,1.5-9,3.9c-1,2.5-5.2,3.6-8.9,2.5C508.8,236.7,447.3,201.4,432.6,201.5"/>
			<path style="fill:#231F20;" d="M489.6,233.5c0,1-0.8,1.8-1.8,1.8c-1,0-1.8-0.8-1.8-1.8s0.8-1.8,1.8-1.8
				C488.8,231.7,489.6,232.5,489.6,233.5"/>
			<path style="fill:#231F20;" d="M503.7,241.1c0,1-0.8,1.8-1.8,1.8c-1,0-1.8-0.8-1.8-1.8c0-1,0.8-1.8,1.8-1.8
				C502.9,239.3,503.7,240.1,503.7,241.1"/>
		</g>
	</g>
</g>
</svg>
