<?xml version="1.0" encoding="utf-8"?>
<!-- Generator: Adobe Illustrator 14.0.0, SVG Export Plug-In . SVG Version: 6.00 Build 43363)  -->
<!DOCTYPE svg PUBLIC "-//W3C//DTD SVG 1.1//EN" "http://www.w3.org/Graphics/SVG/1.1/DTD/svg11.dtd">
<svg version="1.1" xmlns="http://www.w3.org/2000/svg" xmlns:xlink="http://www.w3.org/1999/xlink" x="0px" y="0px" width="800px"
	 height="600px" viewBox="0 0 800 600" enable-background="new 0 0 800 600" xml:space="preserve">
<g id="Background">
	<rect fill="#FFFFFF" width="800" height="600"/>
</g>
<g id="Gear">
	<path id="Cog" fill="#B3B3B3" d="M653.278,322.57c-0.079-0.649-0.8-1.084-1.267-1.482c-0.568-0.488-1.151-0.959-1.742-1.42
		c-1.286-1.004-2.604-1.969-3.937-2.911c-2.572-1.817-5.212-3.54-7.89-5.197c-5.309-3.285-10.794-6.334-16.499-8.877
		c-2.82-1.258-5.712-2.388-8.686-3.228c-0.5-0.142-0.716-0.012-0.72-0.586c-0.002-0.39-0.006-0.779-0.011-1.168
		c-0.009-0.78-0.022-1.56-0.04-2.339c-0.038-1.693-0.098-3.386-0.177-5.078c-0.153-3.27-0.382-6.537-0.688-9.796
		c-0.146-1.573-0.312-3.145-0.493-4.714c-0.092-0.787-0.188-1.573-0.287-2.359c-0.073-0.575,0.141-0.469,0.621-0.674
		c0.446-0.191,0.89-0.39,1.33-0.596c5.618-2.627,10.843-6.149,15.813-9.833c5.023-3.723,9.852-7.721,14.42-11.991
		c1.096-1.024,2.169-2.072,3.197-3.164c0.505-0.536,1.001-1.08,1.474-1.643c0.521-0.62,0.508-0.902,0.386-1.699
		c-0.477-3.125-1.469-6.226-2.292-9.273c-0.832-3.079-1.634-6.18-2.608-9.218c-0.173-0.539-0.332-1.176-0.69-1.627
		c-0.349-0.44-1.438-0.605-1.952-0.769c-1.563-0.495-3.151-0.904-4.743-1.29c-6.296-1.527-12.723-2.6-19.158-3.323
		c-6.432-0.722-13.017-1.179-19.471-0.469c-0.375,0.041-0.749,0.087-1.123,0.137c-0.146-0.35-0.293-0.7-0.441-1.049
		c-0.295-0.698-0.594-1.395-0.896-2.089c-0.654-1.501-1.326-2.994-2.015-4.479c-1.318-2.841-2.698-5.654-4.141-8.434
		c-0.689-1.328-1.393-2.648-2.109-3.962c-0.358-0.655-0.72-1.308-1.084-1.959c-0.183-0.325-0.365-0.65-0.549-0.975
		c-0.372-0.655-0.381-0.626,0.143-1.163c2.119-2.173,4.009-4.565,5.798-7.014c3.74-5.121,7.015-10.586,10.011-16.17
		c1.51-2.814,2.935-5.673,4.284-8.567c0.634-1.359,1.244-2.73,1.805-4.122c0.279-0.695,0.546-1.395,0.796-2.101
		c0.186-0.523,0.722-1.474,0.446-2.004c-1.397-2.692-3.504-5.094-5.343-7.495c-1.953-2.551-3.909-5.105-5.94-7.594
		c-0.425-0.52-0.844-1.054-1.312-1.536c-0.544-0.561-0.883-0.643-1.655-0.604c-1.615,0.081-3.225,0.294-4.824,0.526
		c-3.222,0.468-6.422,1.08-9.602,1.778c-6.258,1.374-12.459,3.06-18.494,5.217c-2.91,1.04-5.778,2.207-8.543,3.591
		c-0.668,0.334-1.328,0.684-1.979,1.051c-0.443,0.25-0.521,0.503-0.92,0.108c-0.269-0.265-0.537-0.528-0.807-0.792
		c-1.166-1.14-2.347-2.266-3.539-3.379c-4.577-4.27-9.343-8.337-14.278-12.188c-0.296-0.231-0.592-0.461-0.889-0.69
		c0.147-0.35,0.29-0.703,0.429-1.057c0.276-0.709,0.534-1.426,0.776-2.147c0.524-1.563,0.977-3.148,1.391-4.743
		c0.813-3.13,1.463-6.302,2-9.491c1.071-6.36,1.734-12.786,2.06-19.227c0.16-3.172,0.338-6.445-0.077-9.605
		c-0.048-0.34-0.897-0.807-1.138-0.971c-0.612-0.418-1.244-0.809-1.876-1.197c-1.424-0.875-2.871-1.714-4.316-2.555
		c-2.79-1.622-5.592-3.227-8.42-4.781c-0.703-0.386-2.69-1.867-3.545-1.5c-1.48,0.636-2.892,1.442-4.28,2.255
		c-5.424,3.177-10.602,6.799-15.575,10.638c-4.91,3.789-9.704,7.839-13.884,12.435c-1.011,1.112-1.977,2.26-2.889,3.454
		c-1.525-0.627-3.058-1.236-4.597-1.827c-2.964-1.139-5.952-2.211-8.963-3.216c-3.017-1.007-6.056-1.946-9.114-2.816
		c-0.735-0.209-1.472-0.414-2.209-0.615c0.005-0.758-0.013-1.516-0.049-2.273c-0.076-1.643-0.237-3.28-0.445-4.911
		c-0.816-6.404-2.293-12.712-4.071-18.913c-1.735-6.05-3.647-12.214-6.408-17.885c-0.214-0.439-0.43-1.238-0.935-1.396
		c-0.605-0.189-1.202-0.336-1.826-0.451c-1.631-0.3-3.273-0.526-4.915-0.753c-3.224-0.45-6.454-0.849-9.687-1.235
		c-1.461-0.175-2.985-0.448-4.46-0.408c-1.394,0.038-2.485,2.023-3.276,3.035c-1.936,2.478-3.736,5.063-5.466,7.687
		c-3.453,5.242-6.647,10.667-9.455,16.284c-1.382,2.764-2.671,5.577-3.767,8.468c-0.526,1.388-1.011,2.792-1.426,4.218
		c-0.104,0.358-0.204,0.717-0.3,1.078c-0.389,0.001-0.779,0.004-1.168,0.008c-0.91,0.009-1.819,0.023-2.728,0.044
		c-6.545,0.148-13.082,0.603-19.584,1.357c-0.787,0.092-1.573,0.188-2.359,0.288c-0.575,0.073-0.468-0.141-0.674-0.622
		c-0.144-0.335-0.292-0.668-0.443-1c-0.659-1.437-1.391-2.84-2.165-4.218c-1.526-2.719-3.197-5.357-4.962-7.927
		c-3.549-5.166-7.45-10.101-11.584-14.81c-2.059-2.345-4.16-4.668-6.434-6.809c-0.535-0.503-1.078-1-1.641-1.474
		c-0.524-0.441-0.695-0.5-1.354-0.432c-1.586,0.163-3.176,0.65-4.717,1.045c-3.159,0.812-6.306,1.665-9.446,2.542
		c-1.443,0.403-2.888,0.799-4.318,1.247c-0.591,0.185-1.205,0.354-1.749,0.659c-0.641,0.361-0.793,1.437-1.001,2.094
		c-1.934,6.125-3.052,12.563-3.971,18.909c-0.928,6.414-1.569,12.933-1.426,19.42c0.034,1.559,0.115,3.119,0.273,4.67
		c0.038,0.376,0.081,0.751,0.128,1.126c0.07,0.56-0.18,0.469-0.652,0.668c-0.814,0.343-1.627,0.691-2.438,1.044
		c-2.881,1.256-5.734,2.576-8.557,3.958c-2.803,1.374-5.577,2.809-8.316,4.305c-0.655,0.358-1.309,0.719-1.959,1.083
		c-0.325,0.182-0.65,0.365-0.975,0.549c-0.431,0.244-0.517,0.496-0.904,0.112c-1.118-1.11-2.3-2.154-3.517-3.153
		c-4.832-3.967-10.128-7.362-15.542-10.474c-5.499-3.161-11.185-6.157-17.075-8.524c-0.695-0.279-1.396-0.546-2.102-0.796
		c-0.411-0.146-1.418-0.683-1.838-0.526c-1.319,0.491-2.522,1.559-3.641,2.384c-2.615,1.929-5.186,3.92-7.747,5.922
		c-1.196,0.935-2.396,1.867-3.577,2.821c-0.542,0.438-1.086,0.876-1.604,1.341c-0.666,0.597-0.871,0.962-0.826,1.859
		c0.16,3.167,0.719,6.334,1.295,9.448c1.178,6.361,2.732,12.671,4.674,18.842c0.935,2.967,1.958,5.911,3.149,8.786
		c0.567,1.37,1.174,2.724,1.829,4.054c0.33,0.669,0.671,1.332,1.033,1.984c0.182,0.329,0.368,0.655,0.556,0.979
		c-0.354,0.357-0.706,0.715-1.057,1.074c-4.378,4.481-8.558,9.156-12.523,14.006c-0.95,1.162-1.888,2.333-2.813,3.515
		c-0.231,0.295-0.462,0.591-0.691,0.887c-0.345,0.445-0.46,0.197-0.933,0.008c-0.824-0.33-1.659-0.633-2.5-0.916
		c-3.028-1.016-6.141-1.791-9.264-2.452c-6.315-1.335-12.746-2.169-19.177-2.679c-3.226-0.256-6.466-0.451-9.702-0.46
		c-1.521-0.005-3.056,0.018-4.57,0.178c-1.132,0.119-1.986,2.185-2.521,3.054c-1.698,2.762-3.302,5.585-4.901,8.405
		c-0.756,1.333-1.511,2.666-2.253,4.006c-0.361,0.652-0.716,1.307-1.057,1.97c-0.234,0.454-0.853,1.368-0.624,1.901
		c1.22,2.854,2.955,5.531,4.623,8.14c1.696,2.652,3.486,5.246,5.336,7.793c3.665,5.048,7.584,9.948,11.917,14.442
		c2.156,2.236,4.433,4.364,6.904,6.25c-1.206,2.934-2.347,5.895-3.421,8.88c-1.076,2.989-2.084,6.003-3.025,9.037
		c-0.452,1.459-0.888,2.922-1.309,4.391c-0.21,0.734-0.417,1.47-0.619,2.207c-0.151,0.55-0.343,0.365-0.858,0.372
		c-0.506,0.006-1.011,0.022-1.516,0.045c-6.4,0.3-12.774,1.626-18.968,3.203c-6.186,1.574-12.32,3.469-18.269,5.789
		c-1.396,0.544-2.779,1.126-4.132,1.771c-0.393,0.188-1.485,0.52-1.672,0.928c-0.284,0.619-0.391,1.333-0.513,1.996
		c-0.585,3.173-0.968,6.39-1.374,9.59c-0.196,1.546-0.383,3.094-0.57,4.641c-0.191,1.583-0.494,3.233-0.452,4.831
		c0.035,1.323,1.785,2.29,2.74,3.044c1.28,1.012,2.595,1.979,3.925,2.924c5.122,3.641,10.493,6.962,16.011,9.967
		c5.424,2.953,11.067,5.721,17.014,7.453c0.357,0.104,0.716,0.204,1.076,0.3c0.001,0.39,0.004,0.778,0.008,1.168
		c0.008,0.779,0.02,1.559,0.036,2.339c0.035,1.692,0.091,3.385,0.167,5.076c0.147,3.269,0.37,6.535,0.668,9.794
		c0.144,1.572,0.306,3.144,0.485,4.713c0.09,0.787,0.184,1.573,0.283,2.359c0.063,0.501,0.277,0.71-0.236,0.925
		c-0.448,0.188-0.893,0.383-1.334,0.585c-2.779,1.273-5.438,2.809-8.03,4.427c-5.33,3.327-10.375,7.117-15.213,11.121
		c-2.406,1.991-4.76,4.047-7.046,6.173c-1.099,1.021-2.177,2.065-3.212,3.15c-0.512,0.537-1.015,1.083-1.501,1.644
		c-0.525,0.604-0.743,0.839-0.663,1.623c0.319,3.098,1.427,6.239,2.234,9.238c0.831,3.087,1.644,6.191,2.6,9.243
		c0.185,0.591,0.353,1.205,0.658,1.749c0.327,0.568,1.151,0.697,1.737,0.887c1.555,0.505,3.137,0.924,4.725,1.313
		c3.162,0.775,6.355,1.418,9.562,1.976c6.376,1.109,12.824,1.91,19.295,2.167c3.255,0.13,6.529,0.11,9.772-0.22
		c0.375-0.038,0.75-0.08,1.124-0.127c0.559-0.07,0.469,0.18,0.667,0.651c0.294,0.698,0.592,1.396,0.894,2.092
		c0.652,1.502,1.321,2.997,2.007,4.484c1.313,2.845,2.688,5.661,4.126,8.444c0.687,1.33,1.388,2.652,2.103,3.967
		c0.357,0.656,0.717,1.311,1.081,1.962c0.182,0.326,0.364,0.651,0.548,0.977c0.261,0.461,0.708,0.812,0.295,1.228
		c-4.339,4.373-7.873,9.593-11.099,14.816c-3.354,5.431-6.381,11.068-9.088,16.85c-0.636,1.358-1.252,2.728-1.819,4.116
		c-0.283,0.693-0.555,1.392-0.81,2.097c-0.172,0.474-0.833,1.702-0.653,2.189c0.445,1.208,1.407,2.308,2.157,3.334
		c0.989,1.352,2.005,2.685,3.022,4.015c1.955,2.559,3.922,5.112,5.947,7.616c0.689,0.853,1.61,2.483,2.833,2.445
		c1.613-0.051,3.225-0.264,4.822-0.488c6.412-0.901,12.772-2.339,19.008-4.069c6.026-1.672,12.046-3.636,17.667-6.406
		c0.668-0.329,1.331-0.67,1.982-1.031c0.328-0.182,0.653-0.367,0.977-0.555c0.268,0.266,0.536,0.53,0.805,0.794
		c1.165,1.143,2.343,2.271,3.534,3.387c2.287,2.141,4.622,4.231,7.001,6.27c2.375,2.035,4.796,4.019,7.259,5.947
		c0.295,0.231,0.591,0.462,0.888,0.691c0.445,0.345,0.197,0.459,0.008,0.932c-0.282,0.706-0.545,1.419-0.792,2.138
		c-0.535,1.559-0.996,3.141-1.415,4.733c-1.645,6.248-2.667,12.651-3.367,19.068c-0.349,3.199-0.606,6.408-0.772,9.623
		c-0.165,3.196-0.319,6.453,0.019,9.644c0.112,1.064,1.912,1.813,2.728,2.321c1.417,0.88,2.861,1.717,4.301,2.558
		c2.793,1.63,5.606,3.23,8.436,4.797c1.055,0.584,2.38,1.578,3.609,1.72c0.558,0.064,1.442-0.586,1.922-0.836
		c0.776-0.403,1.54-0.83,2.296-1.269c2.723-1.577,5.369-3.287,7.965-5.064c5.176-3.543,10.187-7.346,14.901-11.486
		c2.321-2.038,4.572-4.163,6.665-6.438c1.013-1.102,1.987-2.236,2.902-3.421c0.346-0.447,0.46-0.205,0.936-0.012
		c0.353,0.144,0.705,0.286,1.059,0.428c0.824,0.33,1.651,0.655,2.479,0.976c5.928,2.29,11.959,4.315,18.069,6.065
		c0.734,0.211,1.471,0.417,2.208,0.62c0.55,0.15,0.365,0.343,0.372,0.857c0.005,0.379,0.015,0.758,0.03,1.137
		c0.064,1.642,0.214,3.279,0.415,4.909c0.392,3.195,0.956,6.368,1.639,9.514c1.369,6.298,3.157,12.517,5.278,18.603
		c1.028,2.95,2.099,5.896,3.445,8.719c0.187,0.392,0.521,1.485,0.929,1.671c0.514,0.234,1.104,0.347,1.655,0.451
		c1.618,0.305,3.248,0.537,4.878,0.763c3.227,0.448,6.459,0.854,9.693,1.243c1.477,0.179,2.968,0.396,4.456,0.45
		c0.853,0.031,1.185-0.114,1.748-0.738c0.582-0.646,1.134-1.318,1.673-2c3.895-4.923,7.308-10.26,10.479-15.671
		c3.142-5.359,6.071-10.91,8.306-16.716c0.533-1.383,1.026-2.784,1.452-4.204c0.106-0.355,0.209-0.713,0.308-1.071
		c0.149-0.541,0.367-0.359,0.875-0.363c0.91-0.007,1.819-0.02,2.729-0.039c3.261-0.067,6.52-0.211,9.773-0.431
		c3.277-0.22,6.549-0.517,9.813-0.89c0.786-0.09,1.573-0.184,2.358-0.282c0.501-0.063,0.711-0.278,0.926,0.235
		c0.141,0.336,0.285,0.67,0.435,1.002c0.646,1.441,1.369,2.848,2.136,4.229c3.038,5.475,6.66,10.611,10.508,15.544
		c3.825,4.903,7.872,9.76,12.376,14.06c0.722,0.689,1.882,2.209,2.922,2.188c1.569-0.063,3.179-0.592,4.692-0.977
		c3.156-0.802,6.301-1.655,9.438-2.53c1.449-0.404,2.901-0.802,4.34-1.242c0.616-0.188,1.254-0.359,1.84-0.633
		c0.781-0.363,0.9-1.104,1.151-1.874c0.991-3.034,1.699-6.171,2.345-9.295c1.31-6.333,2.267-12.757,2.797-19.203
		c0.268-3.257,0.432-6.525,0.377-9.794c-0.025-1.563-0.099-3.128-0.244-4.686c-0.035-0.375-0.075-0.749-0.119-1.123
		c-0.06-0.509-0.266-0.675,0.257-0.894c0.815-0.342,1.629-0.688,2.441-1.041c5.75-2.494,11.391-5.242,16.896-8.237
		c1.312-0.713,2.614-1.439,3.91-2.181c1.107,1.118,2.28,2.171,3.49,3.176c2.376,1.975,4.882,3.794,7.444,5.517
		c5.284,3.553,10.843,6.719,16.528,9.583c2.813,1.417,5.658,2.795,8.574,3.988c1.355,0.555,2.737,1.105,4.154,1.482
		c0.333,0.088,1.091-0.521,1.333-0.679c0.728-0.475,1.433-0.986,2.133-1.499c2.62-1.917,5.188-3.91,7.746-5.907
		c1.202-0.938,2.405-1.876,3.595-2.829c0.901-0.723,2.779-1.772,2.735-3.067c-0.212-6.351-1.782-12.811-3.286-18.959
		c-1.505-6.151-3.308-12.273-5.706-18.141c-0.561-1.373-1.16-2.729-1.808-4.064c-0.324-0.669-0.659-1.333-1.014-1.986
		c-0.18-0.329-0.362-0.656-0.549-0.981c-0.299-0.521,0.227-0.741,0.607-1.129c2.195-2.239,4.341-4.527,6.436-6.861
		c2.09-2.33,4.129-4.707,6.114-7.127c0.952-1.16,1.893-2.33,2.82-3.511c0.231-0.295,0.463-0.59,0.693-0.887
		c0.314-0.404,0.287-0.661,0.81-0.447c0.82,0.337,1.652,0.646,2.491,0.936c6.074,2.086,12.47,3.276,18.817,4.161
		c6.38,0.889,12.849,1.491,19.293,1.551c1.535,0.014,3.077-0.009,4.607-0.143c0.679-0.06,0.846-0.141,1.262-0.653
		c0.532-0.653,0.966-1.396,1.409-2.109c1.71-2.751,3.31-5.574,4.909-8.39c0.76-1.338,1.517-2.677,2.266-4.021
		c0.639-1.146,1.747-2.6,1.901-3.935c0.064-0.56-0.589-1.442-0.838-1.923c-0.345-0.666-0.707-1.321-1.08-1.972
		c-0.813-1.417-1.665-2.812-2.54-4.189c-3.369-5.304-7.076-10.415-11.05-15.281c-3.91-4.787-8.099-9.5-13.008-13.289
		c-0.448-0.347-0.206-0.46-0.013-0.936c0.144-0.353,0.286-0.706,0.428-1.059c0.283-0.707,0.563-1.415,0.838-2.125
		c0.598-1.538,1.177-3.083,1.738-4.635c1.081-2.988,2.096-6,3.041-9.033c0.455-1.457,0.895-2.92,1.317-4.388
		c0.212-0.734,0.42-1.47,0.624-2.206c0.137-0.496,0.015-0.734,0.581-0.737c0.505-0.002,1.01-0.013,1.515-0.032
		c3.173-0.124,6.335-0.551,9.463-1.087c6.364-1.092,12.645-2.732,18.802-4.669c3.027-0.951,6.036-1.978,8.999-3.115
		c1.399-0.538,2.786-1.111,4.145-1.746c0.653-0.306,1.306-0.619,1.93-0.98c0.364-0.211,0.463-1.406,0.53-1.764
		c0.618-3.285,1.016-6.617,1.437-9.933c0.212-1.669,0.415-3.339,0.614-5.01C653.083,325.857,653.465,324.128,653.278,322.57
		C653.254,322.371,653.338,323.067,653.278,322.57z M574.945,294.379c0.827,25.261-4.075,50.151-13.643,73.491
		c-9.063,22.111-23.292,42.34-40.541,58.813c-18.007,17.198-39.72,30.49-63.27,38.6c-23.766,8.183-49.115,11.351-74.151,8.957
		c-24.825-2.373-49.063-10.152-70.671-22.597c-21.321-12.279-40-29.051-54.435-48.98c-14.615-20.177-24.825-43.508-29.748-67.933
		c-4.965-24.635-4.653-50.169,1.104-74.642c5.572-23.691,16.121-46.154,30.78-65.583c14.947-19.772,34.042-36.301,55.809-48.168
		c22.355-12.187,47.378-19.336,72.771-21.016c24.944-1.65,50.267,2.267,73.595,11.23c22.661,8.707,43.451,22.108,60.704,39.19
		c17.625,17.451,31.389,38.614,40.22,61.789C570.385,255.678,574.296,274.968,574.945,294.379
		C574.985,295.602,574.941,294.263,574.945,294.379z"/>
</g>
<g id="Eagle">
	<g id="_x33_322_Numbers">
		<path id="_x32_-2_Character" fill="#B3B3B3" d="M414.124,183.736c2.236-1.561,4.475-4.059,5.766-7.104
			c0.774-1.795,1.032-3.278,1.032-5.073c0.086-5.621-1.808-11.007-6.196-15.3c-4.474-4.372-10.325-6.011-17.124-6.011
			c-4.824,0-9.103,1.167-12.877,3.53c1.106,0.707,2.155,1.524,3.134,2.48c3.656,3.577,5.575,7.913,6.065,12.509
			c0.844-1.016,2.189-1.659,3.678-1.659c2.754,0,4.733,1.874,4.733,4.215c0,0.235,0,0.469-0.087,0.781
			c-0.946,1.561-1.461,1.874-2.581,2.81c-0.274,0.311-15.339,11.227-21.505,15.69h15.892v15.69h26.868v-15.69H403.97
			L414.124,183.736z"/>
		<path id="_x32_-2_Outline" fill="none" stroke="#FFFFFF" stroke-width="2" d="M414.124,183.736
			c2.236-1.561,4.475-4.059,5.766-7.104c0.774-1.795,1.032-3.278,1.032-5.073c0.086-5.621-1.808-11.007-6.196-15.3
			c-4.474-4.372-10.325-6.011-17.124-6.011c-4.824,0-9.103,1.167-12.877,3.53c1.106,0.707,2.155,1.524,3.134,2.48
			c3.656,3.577,5.575,7.913,6.065,12.509c0.844-1.016,2.189-1.659,3.678-1.659c2.754,0,4.733,1.874,4.733,4.215
			c0,0.235,0,0.469-0.087,0.781c-0.946,1.561-1.461,1.874-2.581,2.81c-0.274,0.311-15.339,11.227-21.505,15.69h15.892v15.69h26.868
			v-15.69H403.97L414.124,183.736z"/>
		<path id="_x32_-1_Character" fill="#B3B3B3" d="M387.256,183.736c2.238-1.561,4.476-4.059,5.766-7.104
			c0.774-1.795,1.033-3.278,1.033-5.073c0.086-5.621-1.807-11.007-6.196-15.3c-4.474-4.372-10.327-6.011-17.124-6.011
			c-1.132,0-2.232,0.068-3.305,0.196h0.224l-10.502,18.596l9.022,1.738c0.258-2.108,2.237-3.669,4.561-3.669
			c2.754,0,4.733,1.874,4.733,4.215c0,0.235,0,0.469-0.086,0.781c-0.947,1.561-1.463,1.874-2.582,2.81
			c-0.117,0.132-2.891,2.169-6.517,4.812c0.646,1.809,1.026,3.807,1.026,6c0,10-7.599,18.344-17.856,20.568h44.602v-15.69h-16.951
			L387.256,183.736z"/>
		<path id="_x32_-1_Outline" fill="none" stroke="#FFFFFF" stroke-width="2" d="M387.256,183.736
			c2.238-1.561,4.476-4.059,5.766-7.104c0.774-1.795,1.033-3.278,1.033-5.073c0.086-5.621-1.807-11.007-6.196-15.3
			c-4.474-4.372-10.327-6.011-17.124-6.011c-1.132,0-2.232,0.068-3.305,0.196h0.224l-10.502,18.596l9.022,1.738
			c0.258-2.108,2.237-3.669,4.561-3.669c2.754,0,4.733,1.874,4.733,4.215c0,0.235,0,0.469-0.086,0.781
			c-0.947,1.561-1.463,1.874-2.582,2.81c-0.117,0.132-2.891,2.169-6.517,4.812c0.646,1.809,1.026,3.807,1.026,6
			c0,10-7.599,18.344-17.856,20.568h44.602v-15.69h-16.951L387.256,183.736z"/>
		<path id="_x33_-2_Character" fill="#B3B3B3" d="M356.897,169.492l10.756-19.046h-26.623l-8.063,14.277l12.915,0.242l-8.295,10.729
			c0.452,0.651,0.869,1.337,1.237,2.065l7.918,2.739c2.667,0.937,2.84,4.138,2.667,5.23c-0.344,2.732-2.41,4.917-5.421,4.917
			c-1.295,0-2.557-0.384-3.696-1.055c-1.129,5.58-4.657,10.381-9.587,13.499c3.762,2.39,8.337,3.792,13.283,3.792
			c12.908,0,23.32-9.445,23.32-21.154C367.31,177.61,362.232,172.067,356.897,169.492"/>
		<path id="_x33_-2_Outline" fill="none" stroke="#FFFFFF" stroke-width="2" d="M356.897,169.492l10.756-19.046h-26.623
			l-8.063,14.277l12.915,0.242l-8.295,10.729c0.452,0.651,0.869,1.337,1.237,2.065l7.918,2.739c2.667,0.937,2.84,4.138,2.667,5.23
			c-0.344,2.732-2.41,4.917-5.421,4.917c-1.295,0-2.557-0.384-3.696-1.055c-1.129,5.58-4.657,10.381-9.587,13.499
			c3.762,2.39,8.337,3.792,13.283,3.792c12.908,0,23.32-9.445,23.32-21.154C367.31,177.61,362.232,172.067,356.897,169.492z"/>
		<path id="_x33_-1_Character" fill="#B3B3B3" d="M330.278,169.489c5.335,2.576,10.413,8.119,10.413,16.237
			c0,11.709-10.413,21.155-23.322,21.155c-11.446,0-20.912-7.494-22.892-17.408c0,0,15.577-3.747,15.663-3.591
			c1.549,2.81,4.303,4.762,7.229,4.762c3.012,0,5.078-2.186,5.422-4.918c0.172-1.093,0-4.293-2.668-5.23l-10.155-3.513l9.294-12.022
			l-20.827-0.39l-0.774-14.129h43.374L330.278,169.489z"/>
		<path id="_x33_-1_Outline" fill="none" stroke="#FFFFFF" stroke-width="2" d="M341.033,150.445h-43.372l0.775,14.128l20.825,0.39
			l-9.293,12.021l10.154,3.512c2.667,0.937,2.839,4.137,2.667,5.23c-0.343,2.732-2.409,4.917-5.42,4.917
			c-2.926,0-5.68-1.951-7.229-4.762c-0.086-0.156-15.662,3.59-15.662,3.59c1.979,9.914,11.445,17.408,22.891,17.408
			c12.908,0,23.32-9.445,23.32-21.154c0-8.118-5.077-13.66-10.412-16.236L341.033,150.445z"/>
	</g>
	<g id="Eagle_Elements">
		<g id="Head">
			<g>
				<path fill="#76B2DD" d="M539.63,355.5L326.4,338.37c37.48-4.16,71.73-26.38,88.68-49.94l0.01,0.01
					c0,30.94,95.38,32.01,119.2,55.49C537.26,351.3,539.63,355.5,539.63,355.5z"/>
				<path fill="#FFFFFF" d="M516.92,205.24c18.08,21.8,9.271,48.19,9.271,48.19c-9.131,38.64,1.14,73.25,8.1,90.5
					c-23.82-23.479-119.2-24.55-119.2-55.49l-0.01-0.01c10.01-13.9,14-28.27,9.08-39.68c0.91-2.95,1.68-5.45,2.3-7.63
					c3.42-12.07,2.18-14.57-5.96-30.87C446.62,183.81,498.82,183.45,516.92,205.24z"/>
				<path fill="#B3B3B3" d="M420.5,210.25c8.14,16.3,9.38,18.8,5.96,30.87c0,0-32.4-5.74-30.21,3.29c-4.5,3.59-8.8,15.14-8.8,15.14
					C378.7,211.8,420.5,210.25,420.5,210.25z"/>
				<path fill="#B3B3B3" d="M426.46,241.12c-0.62,2.18-1.39,4.68-2.3,7.63c-13.42-0.63-27.91-4.34-27.91-4.34
					C394.06,235.38,426.46,241.12,426.46,241.12z"/>
			</g>
			<g>
				<path fill="none" stroke="#231F20" stroke-width="3.75" d="M420.5,210.25c0,0-41.8,1.55-33.05,49.3c0,0,4.3-11.55,8.8-15.14
					c0,0,14.49,3.71,27.91,4.34c4.92,11.41,0.93,25.78-9.08,39.68c-16.95,23.56-51.2,45.78-88.68,49.94l213.23,17.13
					c0,0-2.37-4.2-5.34-11.57c-6.96-17.25-17.23-51.86-8.1-90.5c0,0,8.81-26.39-9.271-48.19
					C498.82,183.45,446.62,183.81,420.5,210.25z"/>
				<path fill="none" stroke="#231F20" stroke-width="1.25" d="M420.5,210.25c8.14,16.3,9.38,18.8,5.96,30.87
					c-0.62,2.18-1.39,4.68-2.3,7.63"/>
				<path fill="none" stroke="#231F20" stroke-width="1.25" d="M396.25,244.41c-2.19-9.03,30.21-3.29,30.21-3.29"/>
			</g>
		</g>
		<g id="Eye_1_">
			<g>
				<path fill="#76B2DD" d="M459.32,219.08c8.51,8.75-21.9,0.66-21.9,0.66S450.81,210.32,459.32,219.08z"/>
			</g>
			<g>
				<path fill="none" stroke="#231F20" d="M437.42,219.74c0,0,13.39-9.42,21.9-0.66C467.83,227.83,437.42,219.74,437.42,219.74z"/>
			</g>
		</g>
		<path id="Wings" fill="#76B2DD" stroke="#231F20" stroke-width="3.75" stroke-miterlimit="6" d="M524.003,276.208
			c0,0,77.086,46.055,51.056,130.152l-11.011-9.012c0,0,0.996,20.613-14.625,43.688l-8.166-16.332c0,0-13.136,30.177-23.075,40.473
			l-7.451-18.817c0,0-18.462,31.957-42.961,49.705l4.261-31.953c0,0-33.375,28.399-77.041,36.563l30.182-40.826
			c0,0-39.413,29.822-111.48,22.717l60.708-41.888c0,0-59.995,20.95-111.472,4.97l73.132-36.212c0,0-42.603,11.72-108.992-15.616
			l75.977-20.947c0,0-71.006,0.355-111.479-49.348l61.775,2.84c0,0-46.154-31.598-44.378-75.264l43.311,39.407
			c0,0-22.716-27.335-1.769-98.694c0,0,10.647,90.794,81.835,128.2c71.186,37.404,138.752,23.529,175.552-23.526l1.204,9.651
			L524.003,276.208z"/>
		<g id="Feather_Dividers">
			<polygon fill="#231F20" points="561.73,350.52 565.858,397.257 562.241,397.44 			"/>
			<path fill="#231F20" d="M544.771,352.572c0,0,1.156,4.454,2.345,11.259c0.561,3.404,1.186,7.39,1.613,11.692
				c0.251,2.151,0.437,4.378,0.568,6.647c0.197,2.265,0.212,4.579,0.292,6.889c0.076,2.316-0.041,4.634-0.053,6.918
				c-0.125,2.28-0.296,4.527-0.466,6.701c-0.307,2.163-0.546,4.264-0.879,6.246c-0.425,1.973-0.822,3.836-1.193,5.557
				c-0.53,1.688-1.012,3.238-1.443,4.613c-0.367,1.394-1.008,2.507-1.386,3.478c-0.841,1.909-1.322,3-1.322,3l-3.182-1.735
				c0,0,0.492-0.988,1.355-2.719c0.395-0.888,1.054-1.88,1.459-3.184c0.469-1.279,0.999-2.723,1.579-4.295
				c0.436-1.632,0.909-3.4,1.405-5.269c0.417-1.894,0.746-3.92,1.148-6.007c0.271-2.11,0.545-4.296,0.776-6.522
				c0.121-2.239,0.352-4.509,0.39-6.792c0.034-2.284,0.133-4.568,0.05-6.818c-0.023-2.254-0.099-4.47-0.239-6.614
				c-0.216-4.291-0.645-8.284-1.034-11.703C545.707,357.081,544.771,352.572,544.771,352.572"/>
			<path fill="#231F20" d="M524.783,353.899c0,0,0.371,1.45,0.838,4.025c0.261,1.284,0.48,2.856,0.783,4.659
				c0.217,1.807,0.564,3.841,0.758,6.079c0.246,2.235,0.462,4.66,0.595,7.235c0.216,2.567,0.204,5.288,0.295,8.102
				c-0.007,2.812-0.049,5.724-0.178,8.679c-0.246,2.942-0.299,5.961-0.746,8.939c-0.186,1.496-0.371,2.988-0.553,4.477
				c-0.179,1.492-0.52,2.95-0.769,4.413c-0.273,1.462-0.542,2.908-0.808,4.341c-0.359,1.413-0.72,2.807-1.067,4.178
				c-0.356,1.371-0.705,2.72-1.046,4.041c-0.436,1.297-0.863,2.561-1.28,3.793c-0.822,2.469-1.591,4.813-2.568,6.87
				c-0.909,2.091-1.742,4.005-2.481,5.701c-0.886,1.629-1.658,3.05-2.291,4.219c-1.276,2.342-2.004,3.679-2.004,3.679l-3.064-1.936
				c0,0,0.75-1.262,2.061-3.469c0.659-1.106,1.455-2.447,2.371-3.986c0.776-1.617,1.652-3.439,2.61-5.428
				c1.026-1.962,1.855-4.212,2.746-6.587c0.454-1.185,0.917-2.405,1.391-3.651c0.382-1.276,0.771-2.583,1.17-3.908
				c0.394-1.33,0.796-2.687,1.204-4.054c0.314-1.394,0.629-2.807,0.951-4.228c0.299-1.428,0.692-2.852,0.92-4.31
				c0.235-1.462,0.474-2.929,0.713-4.392c0.553-2.924,0.716-5.896,1.071-8.807c0.238-2.915,0.387-5.798,0.5-8.586
				c0.02-2.791,0.133-5.496,0.016-8.057c-0.038-2.565-0.159-4.985-0.322-7.22c-0.11-2.235-0.375-4.272-0.526-6.087
				c-0.234-1.804-0.394-3.387-0.606-4.675C525.098,355.36,524.783,353.899,524.783,353.899"/>
			<path fill="#231F20" d="M502.462,359.288c0,0,1.655,6.963,1.879,17.659c0.147,2.671-0.026,5.561-0.054,8.625
				c-0.105,1.526-0.216,3.099-0.329,4.7c-0.099,1.607-0.235,3.246-0.484,4.902c-0.22,1.658-0.439,3.345-0.664,5.053
				c-0.257,1.701-0.64,3.401-0.962,5.132c-0.575,3.474-1.563,6.909-2.477,10.371c-0.239,0.86-0.436,1.735-0.708,2.588l-0.864,2.53
				c-0.579,1.689-1.155,3.367-1.725,5.037c-1.188,3.314-2.695,6.451-3.976,9.557c-1.364,3.073-3.016,5.883-4.401,8.637
				c-1.342,2.788-3.064,5.152-4.459,7.455c-0.72,1.14-1.409,2.23-2.064,3.268c-0.329,0.52-0.651,1.023-0.962,1.516
				c-0.352,0.467-0.689,0.916-1.019,1.353c-1.319,1.746-2.467,3.272-3.413,4.526c-1.894,2.512-2.978,3.947-2.978,3.947l-2.765-2.342
				c0,0,1.099-1.362,3.022-3.757c0.966-1.197,2.137-2.651,3.478-4.318c0.336-0.417,0.682-0.845,1.041-1.288
				c0.318-0.47,0.647-0.955,0.985-1.45c0.674-0.993,1.382-2.038,2.121-3.129c1.432-2.208,3.204-4.474,4.595-7.159
				c1.442-2.65,3.155-5.36,4.583-8.33c1.353-3.007,2.936-6.041,4.209-9.265c0.613-1.624,1.23-3.258,1.852-4.9l0.936-2.471
				c0.291-0.829,0.515-1.682,0.776-2.526c1.008-3.379,2.095-6.742,2.773-10.159c0.37-1.696,0.807-3.37,1.113-5.045
				c0.276-1.685,0.545-3.348,0.814-4.981c0.303-1.633,0.484-3.253,0.636-4.845c0.163-1.587,0.322-3.143,0.478-4.654
				c0.117-3.038,0.387-5.913,0.326-8.572C503.894,366.3,502.462,359.288,502.462,359.288"/>
			<path fill="#231F20" d="M478.42,366.27c0,0-0.012,1.742-0.303,4.78c-0.129,1.515-0.367,3.353-0.647,5.458
				c-0.345,2.099-0.671,4.478-1.238,7.03c-0.474,2.576-1.187,5.322-1.937,8.228c-0.762,2.901-1.749,5.917-2.769,9.029
				c-1.196,3.05-2.212,6.296-3.716,9.402c-0.705,1.576-1.417,3.159-2.129,4.753c-0.78,1.558-1.632,3.092-2.45,4.645
				c-1.558,3.147-3.489,6.079-5.345,9c-1.742,2.996-3.978,5.587-5.909,8.258c-0.496,0.662-0.988,1.313-1.474,1.962
				c-0.504,0.636-1.064,1.212-1.587,1.811c-1.061,1.183-2.099,2.34-3.105,3.465c-1.034,1.106-1.947,2.277-2.997,3.239
				c-1.042,0.974-2.049,1.912-3.015,2.814c-1.966,1.766-3.645,3.538-5.356,4.84c-1.7,1.315-3.186,2.459-4.408,3.402
				c-2.452,1.887-3.853,2.966-3.853,2.966l-2.026-3.003c0,0,1.394-1.005,3.825-2.758c1.22-0.879,2.701-1.944,4.397-3.168
				c1.709-1.211,3.391-2.881,5.364-4.537c0.97-0.849,1.98-1.73,3.03-2.647c1.053-0.905,1.977-2.016,3.019-3.061
				c1.022-1.072,2.072-2.167,3.147-3.292c0.527-0.568,1.099-1.113,1.609-1.716c0.497-0.621,0.997-1.242,1.505-1.871
				c1.969-2.553,4.249-5.022,6.057-7.909c1.909-2.807,3.908-5.629,5.541-8.682c0.853-1.5,1.742-2.984,2.564-4.5
				c0.758-1.549,1.508-3.091,2.254-4.62c1.587-3.023,2.697-6.202,3.981-9.187c1.109-3.049,2.186-6.011,3.037-8.866
				c0.841-2.86,1.637-5.569,2.189-8.118c0.647-2.526,1.049-4.883,1.462-6.962c0.349-2.087,0.645-3.913,0.822-5.425
				C478.353,368.012,478.42,366.27,478.42,366.27"/>
			<path fill="#231F20" d="M445.75,371.394c0,0-0.605,1.467-1.855,3.947c-1.254,2.478-3.103,6-5.617,10.05
				c-1.216,2.054-2.667,4.193-4.182,6.467c-1.542,2.257-3.254,4.578-5.046,6.969c-1.886,2.31-3.713,4.811-5.838,7.12
				c-1.033,1.18-2.079,2.369-3.128,3.562c-1.079,1.163-2.216,2.284-3.322,3.432c-2.182,2.337-4.557,4.478-6.89,6.587
				c-2.27,2.189-4.758,4.038-7.08,5.939c-2.287,1.954-4.738,3.516-6.981,5.117c-1.132,0.784-2.215,1.58-3.302,2.284
				c-1.114,0.667-2.189,1.307-3.221,1.924c-2.079,1.212-3.936,2.421-5.674,3.319c-1.753,0.874-3.28,1.636-4.538,2.26
				c-2.522,1.254-3.962,1.974-3.962,1.974l-1.428-3.329c0,0,1.425-0.648,3.916-1.78c1.247-0.568,2.762-1.253,4.5-2.041
				c1.728-0.818,3.572-1.933,5.648-3.042c1.03-0.568,2.105-1.159,3.216-1.769c1.087-0.651,2.17-1.39,3.311-2.118
				c2.246-1.488,4.708-2.936,7.019-4.772c2.346-1.787,4.864-3.52,7.171-5.591c2.37-1.996,4.791-4.022,7.022-6.25
				c1.137-1.095,2.3-2.162,3.409-3.276c1.079-1.143,2.151-2.28,3.22-3.413c2.186-2.212,4.079-4.62,6.034-6.852
				c1.863-2.303,3.644-4.549,5.258-6.738c1.586-2.209,3.105-4.284,4.39-6.285c2.651-3.943,4.617-7.39,5.958-9.817
				C445.091,372.838,445.75,371.394,445.75,371.394"/>
			<path fill="#231F20" d="M399.296,367.171c0,0-2.609,4.105-7.52,9.496c-1.195,1.371-2.605,2.754-4.053,4.258
				c-1.529,1.42-3.064,3.012-4.811,4.477c-0.858,0.75-1.734,1.512-2.617,2.285c-0.921,0.73-1.848,1.473-2.787,2.22
				c-1.85,1.534-3.868,2.896-5.846,4.325c-1.969,1.439-4.087,2.655-6.099,3.977c-2.045,1.266-4.144,2.359-6.132,3.501
				c-2.011,1.105-4.041,1.999-5.925,2.942c-1.871,0.97-3.746,1.64-5.435,2.364c-1.709,0.67-3.235,1.408-4.667,1.845
				c-1.417,0.477-2.647,0.897-3.667,1.238c-2.033,0.689-3.196,1.083-3.196,1.083l-0.97-3.489c0,0,1.147-0.329,3.151-0.908
				c1.008-0.288,2.228-0.636,3.625-1.038c1.417-0.359,2.928-1.008,4.629-1.583c1.678-0.625,3.545-1.196,5.413-2.061
				c1.879-0.834,3.908-1.618,5.924-2.603c1.996-1.026,4.109-2.004,6.174-3.151c2.03-1.204,4.174-2.303,6.179-3.629
				c2.007-1.313,4.067-2.567,5.958-3.996c0.962-0.692,1.913-1.378,2.856-2.061c0.908-0.719,1.806-1.436,2.692-2.136
				c1.799-1.371,3.386-2.871,4.97-4.213c1.504-1.424,2.97-2.73,4.224-4.037C396.496,371.147,399.296,367.171,399.296,367.171"/>
			<path fill="#231F20" d="M360.489,351.535c0,0-0.313,0.958-1.352,2.353c-0.523,0.684-1.174,1.53-2.061,2.352
				c-0.834,0.886-1.913,1.724-3.068,2.671c-1.231,0.837-2.522,1.825-4.022,2.644c-1.455,0.909-3.076,1.697-4.755,2.519
				c-1.666,0.849-3.48,1.493-5.283,2.273c-1.833,0.686-3.724,1.307-5.603,1.965c-1.913,0.554-3.826,1.103-5.704,1.645
				c-1.891,0.522-3.776,0.901-5.591,1.341c-1.814,0.454-3.583,0.795-5.265,1.087c-1.683,0.311-3.27,0.603-4.739,0.876
				c-1.47,0.258-2.825,0.412-4.022,0.594c-1.197,0.17-2.247,0.318-3.106,0.439c-1.723,0.242-2.708,0.383-2.708,0.383l-0.337-3.606
				c0,0,0.977-0.079,2.686-0.223c0.853-0.073,1.89-0.159,3.079-0.258c1.189-0.11,2.538-0.186,3.996-0.36
				c1.459-0.182,3.034-0.378,4.705-0.59c1.674-0.193,3.436-0.43,5.238-0.77c1.803-0.33,3.689-0.595,5.568-1.004
				c1.882-0.424,3.792-0.86,5.7-1.293c1.875-0.54,3.77-1.044,5.614-1.612c1.799-0.667,3.632-1.201,5.31-1.936
				c1.693-0.708,3.333-1.394,4.808-2.204c1.525-0.72,2.841-1.614,4.102-2.372c1.186-0.862,2.299-1.628,3.167-2.45
				c0.925-0.766,1.609-1.557,2.167-2.205C360.122,352.471,360.489,351.535,360.489,351.535"/>
			<path fill="#231F20" d="M316.214,332.573c0,0-3.933,0.662-9.905,1.091c-1.492,0.121-3.109,0.208-4.822,0.287
				c-1.716,0.098-3.526,0.104-5.397,0.162c-1.871-0.018-3.811,0.024-5.78-0.044c-1.966-0.068-3.97-0.103-5.966-0.26
				c-2.004-0.111-4-0.264-5.963-0.488c-1.969-0.17-3.897-0.426-5.761-0.708c-1.871-0.237-3.667-0.554-5.363-0.889
				c-1.705-0.311-3.314-0.61-4.78-0.992c-1.474-0.353-2.822-0.677-4.02-0.962c-1.182-0.354-2.211-0.658-3.06-0.91
				c-1.701-0.504-2.671-0.793-2.671-0.793l1.227-3.408c0,0,0.922,0.331,2.53,0.91c0.808,0.291,1.788,0.645,2.913,1.05
				c1.145,0.345,2.436,0.732,3.849,1.154c1.401,0.454,2.955,0.834,4.599,1.231c1.641,0.422,3.379,0.833,5.197,1.168
				c1.811,0.379,3.689,0.741,5.617,1.018c1.917,0.329,3.879,0.594,5.845,0.814c1.966,0.269,3.939,0.415,5.883,0.591
				c1.942,0.182,3.863,0.248,5.723,0.371c1.856,0.047,3.656,0.144,5.364,0.144c1.708,0.02,3.321,0.024,4.81-0.011
				C312.247,333.013,316.214,332.573,316.214,332.573"/>
			<path fill="#231F20" d="M289.464,314.1c0,0-0.675-0.135-1.841-0.491c-0.595-0.146-1.27-0.442-2.068-0.722
				c-0.804-0.274-1.697-0.62-2.64-1.063c-0.947-0.428-1.996-0.864-3.076-1.379c-1.061-0.551-2.183-1.131-3.341-1.731
				c-1.174-0.579-2.353-1.234-3.519-1.952c-1.178-0.699-2.379-1.409-3.576-2.119c-2.405-1.417-4.659-3.049-6.859-4.472
				c-1.08-0.736-2.164-1.4-3.11-2.13c-0.962-0.71-1.87-1.383-2.712-2.004c-3.367-2.485-5.614-4.143-5.614-4.143l2.331-2.772
				c0,0,2.071,1.809,5.181,4.521c0.776,0.678,1.622,1.417,2.516,2.193c0.875,0.803,1.882,1.535,2.883,2.345
				c2.042,1.572,4.144,3.375,6.394,4.957c1.125,0.797,2.246,1.592,3.353,2.376c1.094,0.807,2.204,1.549,3.31,2.212
				c1.099,0.686,2.155,1.349,3.159,1.978c1.023,0.599,2.02,1.109,2.925,1.609c0.901,0.516,1.754,0.932,2.522,1.27
				c0.769,0.336,1.424,0.689,1.992,0.88C288.797,313.909,289.464,314.1,289.464,314.1"/>
		</g>
		<g id="Sash">
			<g>
				<path fill="#ED1C24" d="M405.41,299.85c15.99,17.76,91.82,47.16,159.7,18.65c4.76,7.9,8.899,16.88,11.67,26.89
					c-48.73,26-180.66,11.771-183.85-31.989l9.47-20.75l0.13,0.05C401.89,294.63,402.93,297.1,405.41,299.85z"/>
				<path fill="#ED1C24" d="M415.09,288.44c-2.79,3.86-6.04,7.69-9.68,11.41c-2.48-2.75-3.521-5.22-2.88-7.15
					C403.4,290.07,407.38,288.44,415.09,288.44z"/>
			</g>
			<g>
				<path fill="none" stroke="#231F20" stroke-width="3.75" d="M565.11,318.5c4.76,7.9,8.899,16.88,11.67,26.89"/>
				<path fill="none" stroke="#231F20" stroke-width="3.75" d="M415.09,288.44c-2.79,3.86-6.04,7.69-9.68,11.41
					c-0.01,0.01-0.01,0.01-0.021,0.02"/>
				<path fill="none" stroke="#231F20" stroke-width="3.75" stroke-linecap="round" stroke-linejoin="round" d="M415.09,288.44
					c-7.71,0-11.689,1.63-12.56,4.26c-0.641,1.93,0.399,4.4,2.88,7.15c15.99,17.76,91.82,47.16,159.7,18.65"/>
				<path fill="none" stroke="#231F20" stroke-width="3.75" stroke-linecap="round" stroke-miterlimit="6" d="M576.78,345.39
					c-48.73,26-180.66,11.771-183.85-31.989"/>
				
					<line fill="none" stroke="#231F20" stroke-width="3.75" stroke-linecap="round" stroke-miterlimit="6" x1="402.4" y1="292.65" x2="392.93" y2="313.4"/>
			</g>
		</g>
		<g id="Helmet_1_">
			<path fill="#B3B3B3" stroke="#231F20" stroke-width="2.75" d="M435.205,281.801c0,0,46.841,41.508,71.227-9.464
				c0,0,4.129-6.952-0.087-16.217c0,0-1.314-10.89,7.416-18.822c0,0-25.549-12.983-27.344-15.926c0,0-2.046,9.189-13.693,10.676
				c-11.655,1.487-21.288,2.026-18.413,12.401c2.868,10.373,12.97,10.842-4.39,21.884
				C449.921,266.333,420.683,263.076,435.205,281.801z"/>
			<path fill="#ED1C24" stroke="#231F20" stroke-width="3.75" d="M507.378,99.325c-31.954,0-60.424,14.846-78.941,37.999
				l31.97,10.179c12.495-11.106,28.944-17.862,46.972-17.862c39.067,0,70.736,31.67,70.736,70.739
				c0,25.847-13.865,48.444-34.56,60.788l5.018,31.484c35.268-15.77,59.864-51.139,59.864-92.272
				C608.437,144.569,563.19,99.325,507.378,99.325"/>
			<path fill="#B3B3B3" stroke="#231F20" stroke-width="1.25" d="M507.041,130.337c-17.958,0-34.332,6.729-46.771,17.791
				l12.575,17.142c8.867-8.54,20.912-13.803,34.196-13.803c27.23,0,49.307,22.076,49.307,49.307
				c0,18.674-10.383,34.917-25.686,43.287l12.576,17.139c20.511-12.312,34.237-34.763,34.237-60.426
				C577.476,161.872,545.942,130.337,507.041,130.337"/>
			<path fill="#B3B3B3" stroke="#231F20" stroke-width="2.75" stroke-linecap="round" d="M432.616,201.472
				c0,0,4.034-26.56,37.068-38.769c0,0,41.589-15.832,66.393,26.436c7.789,13.273,12.227,32.343,1.337,55.888
				c0,0,3.568,7.494-1.689,9.986c0,0,2.803,6.95-1.28,9.729c-4.076,2.78,2.614,4.036,7.822,4.757
				c5.2,0.72,28.829,22.379,22.987,32.443c0,0,0.606,6.421-19.42-8.634c-20.022-15.057-28.178-19.176-28.003-24.333
				c0.171-5.155,15.076-32.746,12.504-37.669c-2.572-4.924-8.057,1.458-9.016,3.918c-0.95,2.457-5.166,3.593-8.852,2.521
				C508.778,236.674,447.32,201.438,432.616,201.472"/>
			<path fill="#231F20" d="M489.629,233.538c0,1.017-0.822,1.841-1.842,1.841c-1.015,0-1.841-0.824-1.841-1.841
				s0.826-1.842,1.841-1.842C488.807,231.696,489.629,232.521,489.629,233.538"/>
			<path fill="#231F20" d="M503.742,241.118c0,1.015-0.818,1.841-1.838,1.841c-1.015,0-1.841-0.826-1.841-1.841
				c0-1.017,0.826-1.841,1.841-1.841C502.924,239.277,503.742,240.101,503.742,241.118"/>
		</g>
	</g>
</g>
</svg>
